<?xml version="1.0" encoding="UTF-8"?>
<svg version="1.1" xmlns="http://www.w3.org/2000/svg" width="180" height="180">
<path d="M0 0 C7.44803148 7.36865637 14.39875573 15.09841638 20.87109375 23.3359375 C23.35442003 26.44351277 25.92004563 29.47264196 28.5 32.5 C31.91006724 36.51350934 35.30150088 40.53912116 38.625 44.625 C39.25664062 45.40101562 39.88828125 46.17703125 40.5390625 46.9765625 C42 49 42 49 43 52 C43.66 52 44.32 52 45 52 C45.495 53.98 45.495 53.98 46 56 C46.66 56 47.32 56 48 56 C49.7259367 58.46824223 51.28845693 60.90943365 52.8125 63.5 C53.26101318 64.26231934 53.70952637 65.02463867 54.17163086 65.81005859 C64.21836349 83.52369836 65.88703773 101.4093531 61 121 C56.5737047 136.60380869 44.57525019 150.18689464 30.89453125 158.43359375 C15.37107447 166.83427684 -1.83898586 169.7019303 -19.25 166 C-37.28355103 160.49823867 -52.0352251 149.55144165 -61.6484375 133.1953125 C-70.57822359 116.42473862 -72.00998492 98.18681209 -67 80 C-65.46971715 75.45847924 -63.67661876 70.98547879 -61 67 C-58.09892319 65.9715469 -55.3635122 65.87147758 -52.3046875 65.8671875 C-51.42425781 65.86589844 -50.54382813 65.86460938 -49.63671875 65.86328125 C-48.26966797 65.86908203 -48.26966797 65.86908203 -46.875 65.875 C-45.95589844 65.87113281 -45.03679688 65.86726563 -44.08984375 65.86328125 C-43.21199219 65.86457031 -42.33414063 65.86585937 -41.4296875 65.8671875 C-40.62772949 65.86831543 -39.82577148 65.86944336 -38.99951172 65.87060547 C-37 66 -37 66 -35 67 C-34.96132812 66.17822266 -34.96132812 66.17822266 -34.921875 65.33984375 C-33.15925999 40.7032931 -21.31567008 19.96484609 -4 3 C-2.69286145 1.96599488 -1.37102337 0.94766698 0 0 Z " fill="#DD2C00" transform="translate(92,6)"/>
<path d="M0 0 C11.72889166 8.44222422 18.46856636 19.06458966 21.875 33 C23.15291544 46.03473751 20.46928752 56.95382137 16.1875 69.1875 C20.80701211 73.77831949 25.73668209 77.30007344 31.375 80.5 C31.96877441 80.83708984 32.56254883 81.17417969 33.17431641 81.52148438 C36.43402684 83.32888473 39.69310833 84.89108727 43.1875 86.1875 C43.1875 86.8475 43.1875 87.5075 43.1875 88.1875 C41.29296779 88.83714023 39.39681351 89.48205115 37.5 90.125 C35.91638672 90.66447266 35.91638672 90.66447266 34.30078125 91.21484375 C17.52722124 96.45526589 -0.47899203 93.39140128 -15.87182617 85.65209961 C-30.88400792 77.56750636 -42.69787936 63.25182078 -47.81640625 47 C-52.50204889 28.89123617 -51.19306639 12.4812643 -43.41015625 -4.43359375 C-41.8125 -6.8125 -41.8125 -6.8125 -39.98193359 -7.4440918 C-25.56006963 -9.89317943 -12.43630398 -7.69364568 0 0 Z " fill="#FFC300" transform="translate(72.8125,79.8125)"/>
<path d="M0 0 C14.36208499 4.56365317 25.23831543 12.19213545 32.75 25.48046875 C40.47980559 41.06085815 38.57617575 56.23338663 33.3125 72.25 C32.879375 73.4875 32.44625 74.725 32 76 C36.61951211 80.59081949 41.54918209 84.11257344 47.1875 87.3125 C47.78127441 87.64958984 48.37504883 87.98667969 48.98681641 88.33398438 C52.24652684 90.14138473 55.50560833 91.70358727 59 93 C59 93.66 59 94.32 59 95 C57.10546779 95.64964023 55.20931351 96.29455115 53.3125 96.9375 C51.72888672 97.47697266 51.72888672 97.47697266 50.11328125 98.02734375 C37.96628365 101.82232795 21.84592347 101.76459652 10 97 C9.34 96.34 8.68 95.68 8 95 C9.17755859 94.25556641 9.17755859 94.25556641 10.37890625 93.49609375 C21.97454785 86.24633863 21.97454785 86.24633863 29 75 C28.45472656 74.44054687 27.90945312 73.88109375 27.34765625 73.3046875 C8.83571843 53.62190916 -0.57028126 29.20310549 -0.0703125 2.09765625 C-0.04710937 1.40542969 -0.02390625 0.71320313 0 0 Z " fill="#FE9000" transform="translate(57,73)"/>
</svg>
