<?xml version="1.0" encoding="UTF-8"?>
<svg version="1.1" xmlns="http://www.w3.org/2000/svg" width="227" height="208">
<path d="M0 0 C0 46.53 0 93.06 0 141 C-7.89264216 139.42147157 -15.94716411 136.65055317 -21 130 C-23.64798275 122.18343175 -22.49834612 113.46959849 -22 105.375 C-21.91966047 103.10832384 -21.84667074 100.84137454 -21.78125 98.57421875 C-21.60570868 93.04347958 -21.33883164 87.52301335 -21 82 C-22.08796875 82.08378906 -23.1759375 82.16757813 -24.296875 82.25390625 C-25.78121696 82.35724651 -27.26559401 82.46008357 -28.75 82.5625 C-29.81541016 82.64661133 -29.81541016 82.64661133 -30.90234375 82.73242188 C-37.52251654 83.17181387 -43.16906431 82.56924464 -50 82 C-50 91.57 -50 101.14 -50 111 C-57.89488229 109.02627943 -65.76229105 106.61689009 -71 100 C-74.32656099 91.4832056 -74.02293876 81.99282085 -73.84911346 72.97229767 C-73.81238721 70.93123148 -73.80371077 68.89140242 -73.79840088 66.85003662 C-73.60481111 42.3633123 -73.60481111 42.3633123 -67.06105042 35.17497253 C-61.23651477 30.10725668 -53.9784416 27.57627699 -46.7109375 25.28515625 C-41.09686544 23.34091445 -36.36403753 20.29762503 -31.375 17.125 C-29.61958698 16.08616746 -27.8605364 15.05345363 -26.09765625 14.02734375 C-22.62103641 11.97651745 -19.17482197 9.88382531 -15.74609375 7.75390625 C-14.91352051 7.23747559 -14.08094727 6.72104492 -13.22314453 6.18896484 C-11.65915877 5.21483962 -10.0986989 4.23502165 -8.54248047 3.24853516 C-3.32846557 0 -3.32846557 0 0 0 Z M-28.59375 38.24609375 C-29.70621094 38.91833984 -30.81867188 39.59058594 -31.96484375 40.28320312 C-33.14333141 41.00113427 -34.32171566 41.71923521 -35.5 42.4375 C-37.80127416 43.83337036 -40.10383467 45.22710533 -42.40625 46.62109375 C-43.43041016 47.2442749 -44.45457031 47.86745605 -45.50976562 48.50952148 C-48 50 -48 50 -50 51 C-50 54.63 -50 58.26 -50 62 C-40.43 62 -30.86 62 -21 62 C-21 53.09 -21 44.18 -21 35 C-24.08256258 35 -25.97881729 36.65783892 -28.59375 38.24609375 Z " fill="#182D3E" transform="translate(110,31)"/>
<path d="M0 0 C19.79435058 11.31105747 19.79435058 11.31105747 20.7215271 14.41717529 C20.70820343 15.31430237 20.69487976 16.21142944 20.68115234 17.13574219 C20.68069916 18.15649841 20.68024597 19.17725464 20.67977905 20.22894287 C20.64881134 21.32386047 20.61784363 22.41877808 20.5859375 23.546875 C20.57744781 24.6732135 20.56895813 25.799552 20.56021118 26.96002197 C20.52662314 30.55765412 20.45132668 34.1530453 20.375 37.75 C20.34490771 40.18876972 20.31753064 42.62757456 20.29296875 45.06640625 C20.2319127 51.04582866 20.11450285 57.02040653 20 63 C29.9 63 39.8 63 50 63 C50 52.44 50 41.88 50 31 C54.85053594 32.61684531 58.58680329 34.36903995 62.8125 37.0625 C63.39708984 37.42666016 63.98167969 37.79082031 64.58398438 38.16601562 C68.82402465 40.82402465 68.82402465 40.82402465 70 42 C70.14092544 43.80797232 70.21238282 45.62140285 70.25634766 47.43432617 C70.28532135 48.59610886 70.31429504 49.75789154 70.34414673 50.95487976 C70.42851138 55.58615273 70.5014976 60.21739273 70.54844093 64.84919262 C70.5841749 68.36551722 70.63737746 71.87954818 70.73388672 75.39477539 C70.84473778 79.44447861 70.88173725 83.49186742 70.9140625 87.54296875 C70.95737701 88.79941696 71.00069153 90.05586517 71.0453186 91.35038757 C71.02702639 99.80431638 71.02702639 99.80431638 68.32098389 102.95474243 C66.13037109 104.46606445 66.13037109 104.46606445 61 107 C57.37 108.98 53.74 110.96 50 113 C50 103.1 50 93.2 50 83 C40.43 83.33 30.86 83.66 21 84 C21.09023437 87.28839844 21.18046875 90.57679687 21.2734375 93.96484375 C21.31308687 97.17212823 21.32858276 100.378692 21.34179688 103.58618164 C21.36377655 105.80467387 21.4106267 108.02307121 21.48339844 110.24047852 C22.04637446 128.1471373 22.04637446 128.1471373 18.65588379 132.87384033 C14.92557899 136.32912561 10.68741856 138.15662958 6 140 C4.02 140.99 2.04 141.98 0 143 C0 95.81 0 48.62 0 0 Z " fill="#182D3E" transform="translate(119,30)"/>
<path d="M0 0 C4.65504551 0.52606183 7.73214214 1.74166852 11.69140625 4.21875 C13.33399414 5.23352417 13.33399414 5.23352417 15.00976562 6.26879883 C15.87661987 6.81330185 15.87661987 6.81330185 16.76098633 7.36880493 C19.8712878 9.32180576 23.00159788 11.24236602 26.12890625 13.16796875 C26.77614655 13.56771408 27.42338684 13.96745941 28.09024048 14.37931824 C34.99523038 18.635186 41.99154462 22.73009888 49 26.8125 C51.41975385 28.22443413 53.83892759 29.63735905 56.2578125 31.05078125 C56.83608292 31.38860626 57.41435333 31.72643127 58.01014709 32.07449341 C74.97153757 41.99470538 74.97153757 41.99470538 80.36181641 45.52148438 C82.58080383 46.76507015 84.45083767 47.51539256 86.83740234 48.30664062 C91.40784137 50.0459496 95.16530278 51.88950047 98 56 C100.55890161 64.16348408 100.16970458 72.92522926 99.95556641 81.39208984 C99.86996284 84.8173533 99.92052031 88.22518198 100.0073204 91.64984131 C100.43512874 111.59225094 100.43512874 111.59225094 96.4630127 117.15087891 C92.32202749 120.91960112 86.72127561 124 81 124 C81.01633987 123.29113647 81.03267975 122.58227295 81.04951477 121.85192871 C81.19248971 115.14355395 81.27220625 108.43767576 81.28240681 101.72771454 C81.28984183 98.2781552 81.32098127 94.83233246 81.40795898 91.38378906 C82.46088309 77.24315499 82.46088309 77.24315499 78.81466675 64.03552246 C75.4815535 60.70039071 71.39455007 59.40615629 67 58 C65.32360096 57.05535625 63.67222835 56.06388495 62.05859375 55.015625 C60.51865504 54.09303877 58.97828412 53.17117364 57.4375 52.25 C56.58945801 51.74178711 55.74141602 51.23357422 54.86767578 50.70996094 C50.64193876 48.1777951 46.41376468 45.64975051 42.18359375 43.125 C32.3536731 37.25165743 22.56889552 31.30701886 12.8125 25.3125 C12.22853455 24.95426147 11.64456909 24.59602295 11.04290771 24.22692871 C9.38832754 23.21143342 7.73514676 22.19365911 6.08203125 21.17578125 C5.12530518 20.58708252 4.1685791 19.99838379 3.18286133 19.3918457 C1 18 1 18 0 17 C-0.07325168 14.13732433 -0.09238205 11.299281 -0.0625 8.4375 C-0.05798828 7.63119141 -0.05347656 6.82488281 -0.04882812 5.99414062 C-0.03700518 3.99606244 -0.01906914 1.99802217 0 0 Z " fill="#1B2F40" transform="translate(119,0)"/>
<path d="M0 0 C0 19.14 0 38.28 0 58 C1.65 58.66 3.3 59.32 5 60 C6.99118678 61.12752912 8.95957271 62.29578849 10.91015625 63.4921875 C11.74975136 64.0047258 11.74975136 64.0047258 12.60630798 64.52761841 C14.4271316 65.640031 16.24475776 66.75756086 18.0625 67.875 C19.97643569 69.04562391 21.89120794 70.21487135 23.80599976 71.38409424 C25.08330979 72.16420821 26.36034871 72.94476626 27.63711548 73.72576904 C31.97589016 76.37920414 36.32585351 79.01277132 40.69384766 81.61791992 C42.2342747 82.54109984 43.76913904 83.47362428 45.29833984 84.4152832 C49.6124753 87.05701556 53.96867115 89.52541369 58.46572876 91.83790588 C79.2605424 102.59353572 79.2605424 102.59353572 82.33642578 108.6171875 C83.7304235 114.24620535 83.20822897 119.38420106 82 125 C78.09759873 125 75.75095136 123.2997708 72.515625 121.3359375 C71.87230225 120.95240112 71.22897949 120.56886475 70.56616211 120.17370605 C68.4568704 118.91386733 66.35342259 117.64460941 64.25 116.375 C62.78511956 115.49707648 61.31994798 114.61963858 59.85449219 113.74267578 C55.56368796 111.17164239 51.28051534 108.5881195 47 106 C45.90816406 105.34 44.81632812 104.68 43.69140625 104 C38.12386476 100.62842109 32.56778511 97.23832024 27.01513672 93.84228516 C21.73153817 90.61394227 16.44178506 87.39573924 11.1505127 84.17999268 C9.37940162 83.10317549 7.60911016 82.02502083 5.83886719 80.94677734 C4.73317383 80.27469238 3.62748047 79.60260742 2.48828125 78.91015625 C0.98481492 77.99535801 -0.51786731 77.07893748 -2.00488281 76.13763428 C-4.12772834 74.88247815 -4.12772834 74.88247815 -7.01757812 73.66461182 C-15.32837131 69.66754105 -15.32837131 69.66754105 -17.14341736 65.16108704 C-17.62529536 61.63326661 -17.71637552 58.28691814 -17.6640625 54.7265625 C-17.68028656 53.44824554 -17.69651062 52.16992859 -17.71322632 50.85287476 C-17.73985452 48.1531479 -17.72244126 45.45818347 -17.67431641 42.75878906 C-17.61717573 39.31885947 -17.67830369 35.89252957 -17.76987076 32.45378494 C-18.22975508 12.37355205 -18.22975508 12.37355205 -14.57409668 6.84265137 C-10.73682219 3.08528073 -5.5020559 0 0 0 Z " fill="#1A2D3E" transform="translate(28,79)"/>
<path d="M0 0 C0.27243567 2.86057458 0.46855822 5.69514573 0.625 8.5625 C0.70878906 9.36236328 0.79257813 10.16222656 0.87890625 10.98632812 C0.98643524 13.62078832 0.86711782 15.50253706 0 18 C-2.92594907 21.02074982 -6.35957193 22.93744889 -10 25 C-10.96856934 25.58837646 -11.93713867 26.17675293 -12.93505859 26.78295898 C-16.10378914 28.7029149 -19.29834943 30.573008 -22.5 32.4375 C-24.90171257 33.84561628 -27.30091486 35.25796195 -29.69921875 36.671875 C-30.30646286 37.0297258 -30.91370697 37.3875766 -31.53935242 37.75627136 C-37.84829231 41.48414077 -44.08272855 45.32881335 -50.3125 49.1875 C-59.37122635 54.79609743 -68.4875669 60.28909706 -77.68383789 65.66918945 C-83.29729865 68.96099806 -88.79080157 72.3608359 -94.171875 76.0234375 C-94.77515625 76.34570312 -95.3784375 76.66796875 -96 77 C-96.66 76.67 -97.32 76.34 -98 76 C-99.50934844 60.15184136 -99.50934844 60.15184136 -96.265625 55.52734375 C-93.61625981 53.69616487 -90.89358716 52.41562031 -88 51 C-79.23853836 46.16940755 -70.65748403 41.03580703 -62.12216187 35.81802368 C-59.07734359 33.95675479 -56.02863709 32.10186926 -52.98046875 30.24609375 C-52.37755508 29.87880661 -51.77464142 29.51151947 -51.15345764 29.13310242 C-45.23502592 25.52954259 -39.29409292 21.96420964 -33.34350586 18.4140625 C-28.79521202 15.69534728 -24.27220982 12.93974483 -19.765625 10.15234375 C-18.18648315 9.17914185 -18.18648315 9.17914185 -16.57543945 8.1862793 C-14.52103297 6.91859877 -12.46994396 5.64552232 -10.42260742 4.36645508 C-9.49810791 3.79693115 -8.5736084 3.22740723 -7.62109375 2.640625 C-6.8005249 2.13047852 -5.97995605 1.62033203 -5.13452148 1.09472656 C-3 0 -3 0 0 0 Z " fill="#0FCDED" transform="translate(217,128)"/>
<path d="M0 0 C0.495 8.415 0.495 8.415 1 17 C-10.90612906 24.49645163 -22.91895915 31.78960663 -35 39 C-43.75407873 44.23041081 -52.47973227 49.50528427 -61.1875 54.8125 C-64.14293907 56.61115448 -67.09870788 58.40926528 -70.0546875 60.20703125 C-72.011373 61.39817003 -73.96711016 62.59086811 -75.921875 63.78515625 C-78.67413563 65.46584 -81.43033428 67.13987884 -84.1875 68.8125 C-85.01854248 69.32208252 -85.84958496 69.83166504 -86.70581055 70.35668945 C-87.47707275 70.82292725 -88.24833496 71.28916504 -89.04296875 71.76953125 C-89.71352295 72.17792236 -90.38407715 72.58631348 -91.07495117 73.00708008 C-93.04090161 74.02109662 -94.83982425 74.55556769 -97 75 C-97.35504026 71.98974413 -97.60884783 69.02121354 -97.8125 66 C-97.92142578 65.16082031 -98.03035156 64.32164063 -98.14257812 63.45703125 C-98.29011139 60.52906328 -98.15081891 58.71195841 -97 56 C-93.5646619 53.05919555 -89.79159843 50.9951001 -85.79434204 48.93865967 C-83.06458242 47.51066255 -80.4452763 45.90827768 -77.80859375 44.31640625 C-75.68527898 43.06445413 -73.56156756 41.81317452 -71.4375 40.5625 C-60.58872128 34.15931176 -49.80274912 27.6577943 -39.04248047 21.10717773 C-29.66054907 15.39583766 -20.26586547 9.70516943 -10.82080078 4.09863281 C-9.26449259 3.15958925 -7.73636021 2.1741148 -6.21484375 1.1796875 C-4 -0 -4 -0 0 0 Z " fill="#0EC7EC" transform="translate(109,0)"/>
<path d="M0 0 C1.23076923 6.4 1.23076923 6.4 0.0625 9.4375 C-0.4634375 10.2109375 -0.4634375 10.2109375 -1 11 C-0.01 11.33 0.98 11.66 2 12 C2 12.99 2 13.98 2 15 C1.34 15 0.68 15 0 15 C-0.06268066 15.59385498 -0.12536133 16.18770996 -0.18994141 16.79956055 C-1.34628035 19.94063436 -3.06926398 20.58738353 -5.9609375 22.20703125 C-6.99089844 22.79419922 -8.02085937 23.38136719 -9.08203125 23.98632812 C-10.16871094 24.58896484 -11.25539062 25.19160156 -12.375 25.8125 C-14.48823714 27.00428257 -16.60022337 28.19828598 -18.7109375 29.39453125 C-19.75217773 29.98057129 -20.79341797 30.56661133 -21.86621094 31.17041016 C-25.96469911 33.56321714 -29.90915529 36.16485657 -33.84228516 38.8190918 C-34.55433105 39.2087915 -35.26637695 39.59849121 -36 40 C-36.66 39.67 -37.32 39.34 -38 39 C-39.50934844 23.15184136 -39.50934844 23.15184136 -36.265625 18.52734375 C-33.60381173 16.68756105 -30.94006569 15.35213547 -28 14 C-26.26074897 13.00359536 -24.52175771 12.00653884 -22.79492188 10.98876953 C-21.01412094 9.94577051 -19.21762814 8.93661725 -17.4140625 7.93359375 C-13.55963554 5.7505945 -9.81360495 3.42306392 -6.0859375 1.03125 C-4 0 -4 0 0 0 Z " fill="#09C9EC" transform="translate(157,165)"/>
<path d="M0 0 C0.33 0.66 0.66 1.32 1 2 C2.65 2 4.3 2 6 2 C6.12375 2.804375 6.2475 3.60875 6.375 4.4375 C6.58125 5.283125 6.7875 6.12875 7 7 C7.66 7.33 8.32 7.66 9 8 C8.19320272 12.19499582 7.29247869 15.79507953 4.09716797 18.77392578 C1.76548028 20.33494101 -0.59881697 21.7198987 -3.0625 23.0625 C-4.30483398 23.78856445 -4.30483398 23.78856445 -5.57226562 24.52929688 C-11.60549638 28 -11.60549638 28 -14 28 C-14 27.34 -14 26.68 -14 26 C-13.34 26 -12.68 26 -12 26 C-12.33 25.01 -12.66 24.02 -13 23 C-13.66 22.67 -14.32 22.34 -15 22 C-14.9278125 21.37351563 -14.855625 20.74703125 -14.78125 20.1015625 C-14.6884375 19.28429687 -14.595625 18.46703125 -14.5 17.625 C-14.4071875 16.81289062 -14.314375 16.00078125 -14.21875 15.1640625 C-13.96647649 13.03087175 -13.96647649 13.03087175 -14 11 C-14.66 10.67 -15.32 10.34 -16 10 C-8.08 5.05 -8.08 5.05 0 0 Z " fill="#44E0F1" transform="translate(171,154)"/>
<path d="M0 0 C0 0.66 0 1.32 0 2 C-1.61893909 3.25178683 -3.29616405 4.42897581 -5 5.5625 C-6.68178516 6.68602592 -8.35279263 7.82636475 -10 9 C-10.05270463 10.36893239 -10.05270463 10.36893239 -9 13 C-8.34 13.33 -7.68 13.66 -7 14 C-5.32983484 14.99414593 -3.66279327 15.9935725 -2 17 C-1.34 15.68 -0.68 14.36 0 13 C2.475 13.495 2.475 13.495 5 14 C5.33 13.01 5.66 12.02 6 11 C8.475 11.495 8.475 11.495 11 12 C6.33662429 15.58597048 1.35935607 18.63477745 -3.625 21.75 C-5.07519531 22.67232422 -5.07519531 22.67232422 -6.5546875 23.61328125 C-7.93914062 24.47759766 -7.93914062 24.47759766 -9.3515625 25.359375 C-10.19541504 25.89014648 -11.03926758 26.42091797 -11.90869141 26.96777344 C-12.59882324 27.3084082 -13.28895508 27.64904297 -14 28 C-14.66 27.67 -15.32 27.34 -16 27 C-17.52716873 10.96472831 -17.52716873 10.96472831 -13.9140625 6.31640625 C-11.33212419 4.55599377 -8.87328621 3.21896991 -6 2 C-5.27296875 1.6184375 -4.5459375 1.236875 -3.796875 0.84375 C-2 0 -2 0 0 0 Z " fill="#0AC2E4" transform="translate(135,177)"/>
<path d="M0 0 C1.23076923 6.4 1.23076923 6.4 0.0625 9.4375 C-0.4634375 10.2109375 -0.4634375 10.2109375 -1 11 C-0.01 11.33 0.98 11.66 2 12 C2 12.99 2 13.98 2 15 C1.34 15 0.68 15 0 15 C-0.09087891 15.90492188 -0.09087891 15.90492188 -0.18359375 16.828125 C-1.35593625 19.94689261 -3.08715349 20.39414589 -6.0625 21.75 C-6.98160156 22.17796875 -7.90070313 22.6059375 -8.84765625 23.046875 C-9.55792969 23.36140625 -10.26820313 23.6759375 -11 24 C-11 23.34 -11 22.68 -11 22 C-10.34 22 -9.68 22 -9 22 C-8.34 20.68 -7.68 19.36 -7 18 C-5.68 18 -4.36 18 -3 18 C-2.83312552 15.58354218 -2.83312552 15.58354218 -3 13 C-4.83883881 10.71271266 -4.83883881 10.71271266 -7.625 10.875 C-8.40875 10.91625 -9.1925 10.9575 -10 11 C-10.33 10.34 -10.66 9.68 -11 9 C-12.98 9 -14.96 9 -17 9 C-17.33 9.99 -17.66 10.98 -18 12 C-19.32 11.67 -20.64 11.34 -22 11 C-19.3759159 9.35270289 -16.75057863 7.70741379 -14.125 6.0625 C-13.37863281 5.59392578 -12.63226563 5.12535156 -11.86328125 4.64257812 C-11.14785156 4.19462891 -10.43242187 3.74667969 -9.6953125 3.28515625 C-9.03547363 2.87144775 -8.37563477 2.45773926 -7.69580078 2.03149414 C-4.64546094 0.17608299 -3.86143223 0 0 0 Z " fill="#18D1F0" transform="translate(157,165)"/>
<path d="M0 0 C10.23 0 20.46 0 31 0 C31 0.33 31 0.66 31 1 C21.43 1 11.86 1 2 1 C2.03222656 4.46757813 2.06445312 7.93515625 2.09765625 11.5078125 C2.09823861 14.87384408 2.08343028 18.23948154 2.06713867 21.60546875 C2.06406034 23.941115 2.07693428 26.27683979 2.10620117 28.61230469 C2.14554938 31.97478779 2.12713809 35.33281411 2.09765625 38.6953125 C2.12223404 39.73615997 2.14681183 40.77700745 2.1721344 41.84939575 C2.03199856 48.95411129 2.03199856 48.95411129 -1.00662231 52.03363037 C-6.78455012 56 -6.78455012 56 -10 56 C-9.67 53.69 -9.34 51.38 -9 49 C-6.36 49 -3.72 49 -1 49 C-0.97523734 43.53735686 -0.95711026 38.07474657 -0.94506836 32.61206055 C-0.94004697 30.75463288 -0.93322859 28.89720915 -0.92456055 27.03979492 C-0.91239883 24.36636379 -0.90674967 21.69298504 -0.90234375 19.01953125 C-0.89718246 18.19226028 -0.89202118 17.36498932 -0.88670349 16.51264954 C-0.88639081 13.28187916 -0.90621225 10.40885652 -1.63110352 7.2487793 C-2 5 -2 5 0 0 Z " fill="#142430" transform="translate(138,111)"/>
<path d="M0 0 C0.66 0.33 1.32 0.66 2 1 C2 17.83 2 34.66 2 52 C11.57 52 21.14 52 31 52 C31.33 52.66 31.66 53.32 32 54 C21.77 54 11.54 54 1 54 C0.34 52.68 -0.32 51.36 -1 50 C-0.67 49.01 -0.34 48.02 0 47 C0.09056044 45.62478069 0.12788713 44.24562868 0.12939453 42.86743164 C0.13254669 42.03969742 0.13569885 41.2119632 0.13894653 40.35914612 C0.1369223 39.46847946 0.13489807 38.57781281 0.1328125 37.66015625 C0.13376923 36.7416539 0.13472595 35.82315155 0.13571167 34.8768158 C0.13639217 32.93423392 0.13454695 30.99164977 0.13037109 29.04907227 C0.12502713 26.07758461 0.13031735 23.10624853 0.13671875 20.13476562 C0.13605783 18.2473955 0.13477637 16.36002547 0.1328125 14.47265625 C0.13483673 13.58401382 0.13686096 12.6953714 0.13894653 11.77980042 C0.13579437 10.94891403 0.13264221 10.11802765 0.12939453 9.26196289 C0.12859894 8.53376846 0.12780334 7.80557404 0.12698364 7.05531311 C0.06262302 4.95354965 0.06262302 4.95354965 -0.57058716 2.79612732 C-0.7122934 2.2034053 -0.85399963 1.61068329 -1 1 C-0.67 0.67 -0.34 0.34 0 0 Z " fill="#15242F" transform="translate(137,41)"/>
<path d="M0 0 C0.33 0 0.66 0 1 0 C1 37.29 1 74.58 1 113 C-0.32 112.67 -1.64 112.34 -3 112 C-2.67 111.01 -2.34 110.02 -2 109 C-1.34 109 -0.68 109 0 109 C0 73.03 0 37.06 0 0 Z " fill="#1C2830" transform="translate(109,59)"/>
<path d="M0 0 C0.268125 0.61875 0.53625 1.2375 0.8125 1.875 C1.95556848 4.2995233 1.95556848 4.2995233 5 6 C3.23462904 7.17491582 1.46250287 8.33968684 -0.3125 9.5 C-1.29863281 10.1496875 -2.28476563 10.799375 -3.30078125 11.46875 C-6 13 -6 13 -9 13 C-10.4783226 10.04335481 -10.06032783 7.25770263 -10 4 C-9.01 3.67 -8.02 3.34 -7 3 C-6.67 2.34 -6.34 1.68 -6 1 C-2.9375 0.375 -2.9375 0.375 0 0 Z " fill="#6AE7F1" transform="translate(173,164)"/>
<path d="M0 0 C0.99 0.33 1.98 0.66 3 1 C3 5.29 3 9.58 3 14 C1.68 14.33 0.36 14.66 -1 15 C-1.33 14.01 -1.66 13.02 -2 12 C-2.99 11.67 -3.98 11.34 -5 11 C-5 10.34 -5 9.68 -5 9 C-5.99 9.33 -6.98 9.66 -8 10 C-7.67 8.02 -7.34 6.04 -7 4 C-6.030625 3.71125 -5.06125 3.4225 -4.0625 3.125 C-0.89335797 2.35785318 -0.89335797 2.35785318 0 0 Z " fill="#09CAEF" transform="translate(212,132)"/>
<path d="M0 0 C0.18964787 2.89890315 0.32785971 5.78538869 0.4375 8.6875 C0.49615234 9.50412109 0.55480469 10.32074219 0.61523438 11.16210938 C0.78418239 17.12356086 0.78418239 17.12356086 -1.51904297 19.69775391 C-6.0117284 23 -6.0117284 23 -9 23 C-9 22.01 -9 21.02 -9 20 C-9.66 20 -10.32 20 -11 20 C-11 19.34 -11 18.68 -11 18 C-7.63458162 16.91825838 -6.70152678 17.07461831 -3 18 C-3 13.71 -3 9.42 -3 5 C-4.98 5 -6.96 5 -9 5 C-9 5.66 -9 6.32 -9 7 C-10.32 6.67 -11.64 6.34 -13 6 C-11.40089132 4.99193149 -9.79551738 3.99379615 -8.1875 3 C-7.29417969 2.443125 -6.40085938 1.88625 -5.48046875 1.3125 C-3 0 -3 0 0 0 Z " fill="#23C3E0" transform="translate(217,128)"/>
<path d="M0 0 C-1.36983503 3.16115776 -1.9890638 3.9927092 -5 6 C-6.32 6 -7.64 6 -9 6 C-8.67 10.62 -8.34 15.24 -8 20 C-6.68 20 -5.36 20 -4 20 C-4 19.34 -4 18.68 -4 18 C-3.01 18 -2.02 18 -1 18 C-0.67 16.68 -0.34 15.36 0 14 C2.97 14.495 2.97 14.495 6 15 C-4.66666667 24 -4.66666667 24 -10 24 C-10.21665549 20.93372294 -10.37459318 17.88272762 -10.5 14.8125 C-10.56703125 13.94818359 -10.6340625 13.08386719 -10.703125 12.19335938 C-10.78339875 9.5744284 -10.74805957 7.51574224 -10 5 C-7.2487557 2.27568343 -3.96744314 0 0 0 Z " fill="#3ABED3" transform="translate(22,51)"/>
<path d="M0 0 C0.66 0.33 1.32 0.66 2 1 C2 4.63 2 8.26 2 12 C10.91 12 19.82 12 29 12 C28.67 12.66 28.34 13.32 28 14 C19.09 14 10.18 14 1 14 C-1.08441299 7.74676102 -1.04415948 6.056125 0 0 Z " fill="#142331" transform="translate(58,81)"/>
<path d="M0 0 C0.66 0 1.32 0 2 0 C2 0.99 2 1.98 2 3 C3.98 3 5.96 3 8 3 C5.86979193 5.28535857 3.7462071 6.89551472 1.05859375 8.48046875 C0.31029297 8.92197266 -0.43800781 9.36347656 -1.20898438 9.81835938 C-1.98564453 10.27017578 -2.76230469 10.72199219 -3.5625 11.1875 C-4.34302734 11.65091797 -5.12355469 12.11433594 -5.92773438 12.59179688 C-11.74527108 16 -11.74527108 16 -14 16 C-14 14.68 -14 13.36 -14 12 C-11.525 12.495 -11.525 12.495 -9 13 C-9.33 12.01 -9.66 11.02 -10 10 C-9.360625 9.87625 -8.72125 9.7525 -8.0625 9.625 C-7.381875 9.41875 -6.70125 9.2125 -6 9 C-5.67 8.34 -5.34 7.68 -5 7 C-2.9375 6.375 -2.9375 6.375 -1 6 C-1.33 5.01 -1.66 4.02 -2 3 C-1.01 3 -0.02 3 1 3 C0.67 2.01 0.34 1.02 0 0 Z " fill="#20C6E2" transform="translate(192,153)"/>
<path d="M0 0 C0 0.99 0 1.98 0 3 C-1 4 -2 5 -3 6 C-3.71447643 8.10332891 -3.71447643 8.10332891 -4 10 C-5.32 10.33 -6.64 10.66 -8 11 C-8.33 10.34 -8.66 9.68 -9 9 C-10.98 9 -12.96 9 -15 9 C-15.33 9.99 -15.66 10.98 -16 12 C-17.32 11.67 -18.64 11.34 -20 11 C-17.3759159 9.35270289 -14.75057863 7.70741379 -12.125 6.0625 C-11.37863281 5.59392578 -10.63226563 5.12535156 -9.86328125 4.64257812 C-9.14785156 4.19462891 -8.43242187 3.74667969 -7.6953125 3.28515625 C-7.03547363 2.87144775 -6.37563477 2.45773926 -5.69580078 2.03149414 C-2.35597633 0 -2.35597633 0 0 0 Z " fill="#0DC7EA" transform="translate(155,165)"/>
<path d="M0 0 C2.31 0 4.62 0 7 0 C7.12375 0.804375 7.2475 1.60875 7.375 2.4375 C7.58125 3.283125 7.7875 4.12875 8 5 C8.66 5.33 9.32 5.66 10 6 C9.67 6.99 9.34 7.98 9 9 C8.34 9 7.68 9 7 9 C7 8.34 7 7.68 7 7 C2.545 7.495 2.545 7.495 -2 8 C-2 7.34 -2 6.68 -2 6 C-2.99 5.67 -3.98 5.34 -5 5 C-4.01 4.67 -3.02 4.34 -2 4 C-0.79117904 1.99983534 -0.79117904 1.99983534 0 0 Z " fill="#32DEF4" transform="translate(170,156)"/>
<path d="M0 0 C2.72869407 0.03287583 5.2966618 0.56397771 8 1 C3.99351344 4.37102834 -0.21589658 7.11912879 -4.6875 9.8125 C-5.70166992 10.44188477 -5.70166992 10.44188477 -6.73632812 11.08398438 C-8.45327206 12.12098434 -10.22352139 13.0686627 -12 14 C-12.66 13.67 -13.32 13.34 -14 13 C-13.01 12.67 -12.02 12.34 -11 12 C-11.33 10.68 -11.66 9.36 -12 8 C-10.35 8.33 -8.7 8.66 -7 9 C-6.896875 8.360625 -6.79375 7.72125 -6.6875 7.0625 C-6.460625 6.381875 -6.23375 5.70125 -6 5 C-5.01 4.67 -4.02 4.34 -3 4 C-2.34 4.33 -1.68 4.66 -1 5 C-1.33 4.01 -1.66 3.02 -2 2 C-1.34 1.34 -0.68 0.68 0 0 Z " fill="#21C4E4" transform="translate(98,18)"/>
<path d="M0 0 C5.76315769 1.54803265 10.37456974 4.48278386 15.375 7.625 C16.20644531 8.140625 17.03789062 8.65625 17.89453125 9.1875 C19.93317962 10.45286795 21.96812882 11.72378866 24 13 C20.02224803 14.11510202 17.70778945 13.85389472 14 12 C14 11.01 14 10.02 14 9 C13.175 8.979375 12.35 8.95875 11.5 8.9375 C6.5734797 7.61789635 3.5025772 4.62703425 0 1 C0 0.67 0 0.34 0 0 Z " fill="#1B2935" transform="translate(186,39)"/>
<path d="M0 0 C0.99 0.33 1.98 0.66 3 1 C2.855625 1.96421875 2.71125 2.9284375 2.5625 3.921875 C2.376875 5.18515625 2.19125 6.4484375 2 7.75 C1.814375 9.00296875 1.62875 10.2559375 1.4375 11.546875 C0.91620531 15.08125794 0.91620531 15.08125794 1 19 C-1.0625 17.5625 -1.0625 17.5625 -3 15 C-3.06008611 11.92468345 -2.53632951 9.01976833 -2 6 C-2 5.34 -2 4.68 -2 4 C-2.66 3.67 -3.32 3.34 -4 3 C-2.1875 1.4375 -2.1875 1.4375 0 0 Z " fill="#30D8EF" transform="translate(159,161)"/>
<path d="M0 0 C9.57 0 19.14 0 29 0 C28.67 0.66 28.34 1.32 28 2 C25.52816697 2.34964428 23.17322873 2.56542285 20.6875 2.6875 C19.61338867 2.74828735 19.61338867 2.74828735 18.51757812 2.81030273 C12.28656971 3.10506883 6.19259584 2.76234608 0 2 C0 1.34 0 0.68 0 0 Z " fill="#162634" transform="translate(60,111)"/>
<path d="M0 0 C0.33 0.66 0.66 1.32 1 2 C0.01 2.495 0.01 2.495 -1 3 C-1.31241455 5.71446979 -1.51336592 8.33909361 -1.625 11.0625 C-1.66367188 11.82111328 -1.70234375 12.57972656 -1.7421875 13.36132812 C-1.83673562 15.24047195 -1.91946756 17.12020336 -2 19 C-1.67 18.34 -1.34 17.68 -1 17 C0.32 17 1.64 17 3 17 C3 17.66 3 18.32 3 19 C1.02 19.99 -0.96 20.98 -3 22 C-5.16803239 19.83196761 -4.27788469 15.12037831 -4.3125 12.125 C-4.34150391 11.29613281 -4.37050781 10.46726563 -4.40039062 9.61328125 C-4.46483158 3.4765198 -4.46483158 3.4765198 -1.98046875 0.9296875 C-1.32691406 0.62289062 -0.67335938 0.31609375 0 0 Z " fill="#34B6CC" transform="translate(123,183)"/>
<path d="M0 0 C1.32 0.33 2.64 0.66 4 1 C2 3 2 3 -0.625 3.125 C-1.40875 3.08375 -2.1925 3.0425 -3 3 C-3.12375 3.78375 -3.2475 4.5675 -3.375 5.375 C-5 8 -5 8 -7.359375 8.77734375 C-9.90202904 9.26935449 -12.43002979 9.68230996 -15 10 C-13.66195862 5.98587587 -11.66433637 5.12603756 -8.14453125 3.0078125 C-5.33310557 1.68659606 -3.05770936 1.61778633 0 2 C0 1.34 0 0.68 0 0 Z " fill="#18C3DF" transform="translate(208,133)"/>
<path d="M0 0 C0.268125 0.61875 0.53625 1.2375 0.8125 1.875 C1.95556848 4.2995233 1.95556848 4.2995233 5 6 C1.94194999 6.07111744 -0.75788999 6.055025 -3.75 5.375 C-4.4925 5.25125 -5.235 5.1275 -6 5 C-7.95216435 6.95216435 -8.84826645 8.53199953 -10 11 C-10 8.69 -10 6.38 -10 4 C-9.01 3.67 -8.02 3.34 -7 3 C-6.67 2.34 -6.34 1.68 -6 1 C-2.9375 0.375 -2.9375 0.375 0 0 Z " fill="#57E7F2" transform="translate(173,164)"/>
<path d="M0 0 C2.97 0.495 2.97 0.495 6 1 C2.58722301 3.67784729 -1.04842704 5.93808259 -4.75 8.1875 C-5.35199219 8.55552734 -5.95398438 8.92355469 -6.57421875 9.30273438 C-8.04838592 10.20361431 -9.52404317 11.10205516 -11 12 C-11.33 11.01 -11.66 10.02 -12 9 C-11.01 9 -10.02 9 -9 9 C-9 8.34 -9 7.68 -9 7 C-8.34 6.67 -7.68 6.34 -7 6 C-5.86649466 3.98330173 -5.86649466 3.98330173 -5 2 C-3.35 2.33 -1.7 2.66 0 3 C0 2.01 0 1.02 0 0 Z " fill="#23BFE1" transform="translate(140,188)"/>
<path d="M0 0 C0.33 5.61 0.66 11.22 1 17 C-0.98 17.99 -0.98 17.99 -3 19 C-3 18.34 -3 17.68 -3 17 C-2.34 17 -1.68 17 -1 17 C-1.66 12.38 -2.32 7.76 -3 3 C-4.98 3.33 -6.96 3.66 -9 4 C-4.5 0 -4.5 0 0 0 Z " fill="#30B7D7" transform="translate(109,0)"/>
<path d="M0 0 C1.32 0 2.64 0 4 0 C4.33 0.66 4.66 1.32 5 2 C5.99 1.34 6.98 0.68 8 0 C11.0916909 2.52956528 11.90931332 5.22454612 13 9 C8.33138019 7.39516194 3.90741833 5.02509806 0 2 C0 1.34 0 0.68 0 0 Z " fill="#172737" transform="translate(120,16)"/>
<path d="M0 0 C0 5.94 0 11.88 0 18 C-0.33 18 -0.66 18 -1 18 C-1.33 13.71 -1.66 9.42 -2 5 C-4.31 5 -6.62 5 -9 5 C-9 5.66 -9 6.32 -9 7 C-10.32 6.67 -11.64 6.34 -13 6 C-11.40089132 4.99193149 -9.79551738 3.99379615 -8.1875 3 C-7.29417969 2.443125 -6.40085938 1.88625 -5.48046875 1.3125 C-3 0 -3 0 0 0 Z " fill="#34B8CB" transform="translate(217,128)"/>
<path d="M0 0 C0.66 0 1.32 0 2 0 C2.625 3.375 2.625 3.375 3 7 C2.34 7.66 1.68 8.32 1 9 C-0.32 9 -1.64 9 -3 9 C-3.33 7.68 -3.66 6.36 -4 5 C-2.68 4.34 -1.36 3.68 0 3 C0 2.01 0 1.02 0 0 Z " fill="#1BD4F1" transform="translate(155,165)"/>
<path d="M0 0 C0.66 0.33 1.32 0.66 2 1 C1.44271087 4.34373475 0.64826111 7.03312999 -1 10 C-2.32 9.67 -3.64 9.34 -5 9 C-4.34 7.68 -3.68 6.36 -3 5 C-4.65 5.33 -6.3 5.66 -8 6 C-5.63404067 3.38499232 -3.13950774 1.61000397 0 0 Z " fill="#1EC0E2" transform="translate(30,45)"/>
<path d="M0 0 C-5.94 3.63 -11.88 7.26 -18 11 C-18 8 -18 8 -17 6 C-15.68 6 -14.36 6 -13 6 C-13 5.34 -13 4.68 -13 4 C-11.68 4 -10.36 4 -9 4 C-9 3.34 -9 2.68 -9 2 C-3.375 -1.125 -3.375 -1.125 0 0 Z " fill="#36BAD6" transform="translate(64,45)"/>
<path d="M0 0 C2.97 0.495 2.97 0.495 6 1 C1.7045025 4.74123976 -2.99900452 7.34151874 -8 10 C-8.33 9.01 -8.66 8.02 -9 7 C-7.35 6.67 -5.7 6.34 -4 6 C-4 5.34 -4 4.68 -4 4 C-3.01 4 -2.02 4 -1 4 C-0.67 2.68 -0.34 1.36 0 0 Z " fill="#2DC3E1" transform="translate(22,65)"/>
<path d="M0 0 C-2.28819146 1.50554634 -4.58021169 3.00457043 -6.875 4.5 C-7.85146484 5.14388672 -7.85146484 5.14388672 -8.84765625 5.80078125 C-13.7734375 9 -13.7734375 9 -16 9 C-16 8.01 -16 7.02 -16 6 C-14.68 6 -13.36 6 -12 6 C-12 5.01 -12 4.02 -12 3 C-10.35 3 -8.7 3 -7 3 C-7 2.01 -7 1.02 -7 0 C-2.25 -1.125 -2.25 -1.125 0 0 Z " fill="#2FBBDC" transform="translate(44,57)"/>
<path d="M0 0 C3.69876091 1.37287342 6.9514476 3.06355453 10.3125 5.125 C11.19550781 5.66382813 12.07851562 6.20265625 12.98828125 6.7578125 C13.65214844 7.16773438 14.31601563 7.57765625 15 8 C13.359375 8.68359375 13.359375 8.68359375 11 9 C8.203125 7.78515625 8.203125 7.78515625 5.25 6.0625 C4.26515625 5.49660156 3.2803125 4.93070313 2.265625 4.34765625 C1.51796875 3.90292969 0.7703125 3.45820313 0 3 C0 2.01 0 1.02 0 0 Z " fill="#182531" transform="translate(160,23)"/>
<path d="M0 0 C0.33 0 0.66 0 1 0 C1.33 6.27 1.66 12.54 2 19 C1.01 19 0.02 19 -1 19 C-1 18.01 -1 17.02 -1 16 C-1.01160156 14.83210937 -1.02320312 13.66421875 -1.03515625 12.4609375 C-1.04443042 11.09895941 -1.0535396 9.73698019 -1.0625 8.375 C-1.07506836 7.33472656 -1.07506836 7.33472656 -1.08789062 6.2734375 C-1.09647478 4.51540183 -1.05242467 2.75727481 -1 1 C-0.67 0.67 -0.34 0.34 0 0 Z " fill="#1C2832" transform="translate(108,185)"/>
<path d="M0 0 C0.33 0.66 0.66 1.32 1 2 C0.01 2.495 0.01 2.495 -1 3 C-1.433125 3.9590625 -1.433125 3.9590625 -1.875 4.9375 C-3.24816013 7.45496024 -4.42382037 7.87292141 -7 9 C-7.66 9.66 -8.32 10.32 -9 11 C-9 10.01 -9 9.02 -9 8 C-9.66 7.67 -10.32 7.34 -11 7 C-7.37 4.69 -3.74 2.38 0 0 Z " fill="#3FD1E5" transform="translate(171,154)"/>
<path d="M0 0 C0 1.32 0 2.64 0 4 C-2.70879335 5.35439668 -5.00933268 5.06501451 -8 5 C-8.33 5.99 -8.66 6.98 -9 8 C-10.32 7.67 -11.64 7.34 -13 7 C-11.21190303 5.82786955 -9.41940875 4.66244474 -7.625 3.5 C-6.62726563 2.8503125 -5.62953125 2.200625 -4.6015625 1.53125 C-2 0 -2 0 0 0 Z " fill="#24C0D3" transform="translate(148,169)"/>
<path d="M0 0 C0.33 0 0.66 0 1 0 C1 4.62 1 9.24 1 14 C-3 13 -3 13 -5 12 C-5 11.34 -5 10.68 -5 10 C-3.68 9.67 -2.36 9.34 -1 9 C-1.020625 7.700625 -1.04125 6.40125 -1.0625 5.0625 C-1.08399454 3.70834367 -1.07148199 2.35243917 -1 1 C-0.67 0.67 -0.34 0.34 0 0 Z " fill="#1C2834" transform="translate(59,128)"/>
<path d="M0 0 C-0.33 0.99 -0.66 1.98 -1 3 C-3.8125 4.0625 -3.8125 4.0625 -7 5 C-8.34721283 5.63815344 -9.68747118 6.29325371 -11 7 C-11.33 6.01 -11.66 5.02 -12 4 C-10.56988027 3.13353333 -9.13059381 2.28218171 -7.6875 1.4375 C-6.48673828 0.72400391 -6.48673828 0.72400391 -5.26171875 -0.00390625 C-3 -1 -3 -1 0 0 Z " fill="#172633" transform="translate(52,67)"/>
<path d="M0 0 C2.31 0 4.62 0 7 0 C7.33 1.65 7.66 3.3 8 5 C5.03 4.67 2.06 4.34 -1 4 C-0.67 2.68 -0.34 1.36 0 0 Z " fill="#1ED6F3" transform="translate(170,156)"/>
<path d="M0 0 C4 0 4 0 7 1 C6 4 6 4 3 6 C2.01 6 1.02 6 0 6 C-0.38218767 4.34385343 -0.71395102 2.67542976 -1 1 C-0.67 0.67 -0.34 0.34 0 0 Z " fill="#1C374B" transform="translate(209,112)"/>
<path d="M0 0 C0.66 0.99 1.32 1.98 2 3 C0.73760288 3.86658615 -0.53527501 4.71792059 -1.8125 5.5625 C-2.87404297 6.27599609 -2.87404297 6.27599609 -3.95703125 7.00390625 C-6 8 -6 8 -9 7 C-6.3765992 4.08511023 -3.28183606 2.11496102 0 0 Z " fill="#162634" transform="translate(85,64)"/>
<path d="M0 0 C1 3 1 3 0 7 C-2.97 5.35 -5.94 3.7 -9 2 C-5.23312136 0.11656068 -3.97041037 -0.22057835 0 0 Z " fill="#162737" transform="translate(155,32)"/>
<path d="M0 0 C-1.62170379 1.00533667 -3.24747237 2.00411907 -4.875 3 C-6.23238281 3.8353125 -6.23238281 3.8353125 -7.6171875 4.6875 C-10 6 -10 6 -12 6 C-12 4.68 -12 3.36 -12 2 C-9.525 2.495 -9.525 2.495 -7 3 C-7.33 2.01 -7.66 1.02 -8 0 C-4.71303767 -0.79953138 -3.28976808 -1.09658936 0 0 Z " fill="#3BCDE1" transform="translate(190,163)"/>
<path d="M0 0 C4.75 1.875 4.75 1.875 7 3 C7 3.99 7 4.98 7 6 C5.68 6.33 4.36 6.66 3 7 C1.68 5.35 0.36 3.7 -1 2 C-0.67 1.34 -0.34 0.68 0 0 Z " fill="#162531" transform="translate(66,160)"/>
<path d="M0 0 C2.97 0.495 2.97 0.495 6 1 C-2.44827586 8 -2.44827586 8 -6 8 C-6 7.34 -6 6.68 -6 6 C-5.01 6 -4.02 6 -3 6 C-2.67 4.68 -2.34 3.36 -2 2 C-1.34 2 -0.68 2 0 2 C0 1.34 0 0.68 0 0 Z " fill="#71DAE1" transform="translate(171,169)"/>
<path d="M0 0 C0.33 0 0.66 0 1 0 C1.66 2.97 2.32 5.94 3 9 C-2.75 13 -2.75 13 -5 13 C-5 12.34 -5 11.68 -5 11 C-3.68 10.34 -2.36 9.68 -1 9 C-1.020625 7.700625 -1.04125 6.40125 -1.0625 5.0625 C-1.08399454 3.70834367 -1.07148199 2.35243917 -1 1 C-0.67 0.67 -0.34 0.34 0 0 Z " fill="#50D8E5" transform="translate(162,169)"/>
<path d="M0 0 C1.98 0 3.96 0 6 0 C2.81404865 2.63978826 -0.30970546 5.10498388 -4 7 C-4.66 6.67 -5.32 6.34 -6 6 C-5.67 5.34 -5.34 4.68 -5 4 C-4.01 4 -3.02 4 -2 4 C-1.34 2.68 -0.68 1.36 0 0 Z " fill="#30BCDD" transform="translate(70,37)"/>
<path d="M0 0 C4.12751449 0.60698743 7.3321148 2.03810791 11 4 C11 4.66 11 5.32 11 6 C8.69 5.67 6.38 5.34 4 5 C4 4.34 4 3.68 4 3 C3.34 3 2.68 3 2 3 C2 2.34 2 1.68 2 1 C1.34 0.67 0.68 0.34 0 0 Z " fill="#192934" transform="translate(121,1)"/>
<path d="M0 0 C0 0.66 0 1.32 0 2 C-1.64333504 3.03789581 -3.31243867 4.03567924 -5 5 C-5.66 5.66 -6.32 6.32 -7 7 C-8.98821313 7.39764263 -10.98944339 7.73775349 -13 8 C-9.81692689 4.43495812 -5.03655764 0 0 0 Z " fill="#2BBBD4" transform="translate(100,4)"/>
<path d="M0 0 C-3.46741134 2.95749791 -6.86873527 5.07848152 -11 7 C-11 6.01 -11 5.02 -11 4 C-10.01 4 -9.02 4 -8 4 C-8 3.34 -8 2.68 -8 2 C-4.77208445 -0.1519437 -3.71599191 -0.20086443 0 0 Z " fill="#29BDD5" transform="translate(139,193)"/>
<path d="M0 0 C6.64615385 1.47692308 6.64615385 1.47692308 8.4375 4.125 C8.7159375 5.053125 8.7159375 5.053125 9 6 C4.70042176 5.52226908 2.78280018 4.29813355 0 1 C0 0.67 0 0.34 0 0 Z " fill="#182733" transform="translate(25,152)"/>
<path d="M0 0 C1.75547734 2.6848477 2.00627277 3.92002215 1.75 7.1875 C1.5025 8.115625 1.255 9.04375 1 10 C0.01 10.495 0.01 10.495 -1 11 C-1.02688151 9.35425434 -1.04634123 7.70838587 -1.0625 6.0625 C-1.07410156 5.14597656 -1.08570313 4.22945313 -1.09765625 3.28515625 C-1 1 -1 1 0 0 Z " fill="#172633" transform="translate(170,113)"/>
<path d="M0 0 C3.3 0 6.6 0 10 0 C7.16671013 2.83328987 5.64553172 3.7191375 2 5 C1.34 3.35 0.68 1.7 0 0 Z " fill="#28BCDB" transform="translate(74,32)"/>
<path d="M0 0 C0.33 0 0.66 0 1 0 C1.82622671 5.60563042 2.06795656 10.42289352 1 16 C-1.26273207 12.44181064 -1.07331744 9.87452049 -0.625 5.75 C-0.51414063 4.67234375 -0.40328125 3.5946875 -0.2890625 2.484375 C-0.19367188 1.66453125 -0.09828125 0.8446875 0 0 Z " fill="#162735" transform="translate(170,72)"/>
<path d="M0 0 C1.98 0 3.96 0 6 0 C2.80009492 2.74277578 -0.00499382 4.6302836 -4 6 C-4 5.34 -4 4.68 -4 4 C-3.34 4 -2.68 4 -2 4 C-1.34 2.68 -0.68 1.36 0 0 Z " fill="#32C0DD" transform="translate(150,183)"/>
<path d="M0 0 C0 0.66 0 1.32 0 2 C-2.75 4.1875 -2.75 4.1875 -6 6 C-8.203125 5.61328125 -8.203125 5.61328125 -10 5 C-8.71186658 4.16121545 -7.41936744 3.32913217 -6.125 2.5 C-5.40570313 2.0359375 -4.68640625 1.571875 -3.9453125 1.09375 C-2 0 -2 0 0 0 Z " fill="#31BBDA" transform="translate(135,177)"/>
<path d="M0 0 C0.33 0.66 0.66 1.32 1 2 C0.34 2 -0.32 2 -1 2 C-1.33 3.32 -1.66 4.64 -2 6 C-3.98 6 -5.96 6 -8 6 C-5.63379989 3.38472619 -3.057952 1.73559438 0 0 Z " fill="#2CC2D8" transform="translate(191,142)"/>
<path d="M0 0 C0.66 0.66 1.32 1.32 2 2 C-1.96 3.98 -1.96 3.98 -6 6 C-6 4.35 -6 2.7 -6 1 C-3.125 0.375 -3.125 0.375 0 0 Z " fill="#19282F" transform="translate(175,137)"/>
<path d="M0 0 C-1.0975223 2.99324263 -1.67682892 3.84610901 -4.625 5.25 C-5.40875 5.4975 -6.1925 5.745 -7 6 C-6.75 4.125 -6.75 4.125 -6 2 C-3.85331506 0.61504198 -2.56128588 0 0 0 Z " fill="#24BFDB" transform="translate(22,51)"/>
<path d="M0 0 C1.65 0 3.3 0 5 0 C4.67 1.32 4.34 2.64 4 4 C2.125 4.625 2.125 4.625 0 5 C-0.66 4.34 -1.32 3.68 -2 3 C-1.34 3 -0.68 3 0 3 C0 2.01 0 1.02 0 0 Z " fill="#0F243A" transform="translate(90,41)"/>
<path d="M0 0 C2.91517292 1.07401108 4.77810176 1.77810176 7 4 C4.625 4.625 4.625 4.625 2 5 C1.34 4.34 0.68 3.68 0 3 C0 2.01 0 1.02 0 0 Z " fill="#192835" transform="translate(153,19)"/>
<path d="M0 0 C4.875 1.75 4.875 1.75 6 4 C5.67 4.66 5.34 5.32 5 6 C3.0625 5.25 3.0625 5.25 1 4 C0.25 1.875 0.25 1.875 0 0 Z " fill="#172531" transform="translate(28,137)"/>
<path d="M0 0 C0.99 0.33 1.98 0.66 3 1 C-1.75 5.875 -1.75 5.875 -4 7 C-4.66 6.34 -5.32 5.68 -6 5 C-5.195625 4.54625 -4.39125 4.0925 -3.5625 3.625 C-0.91143428 2.25274335 -0.91143428 2.25274335 0 0 Z " fill="#13CCF4" transform="translate(212,132)"/>
<path d="M0 0 C1.2065625 0.0309375 1.2065625 0.0309375 2.4375 0.0625 C2.4375 1.0525 2.4375 2.0425 2.4375 3.0625 C1.4475 3.3925 0.4575 3.7225 -0.5625 4.0625 C-1.5525 3.0725 -2.5425 2.0825 -3.5625 1.0625 C-2.5625 0.0625 -2.5625 0.0625 0 0 Z " fill="#172635" transform="translate(44.5625,129.9375)"/>
<path d="M0 0 C2.97 0.495 2.97 0.495 6 1 C3.47211993 3.79872437 1.79588866 5.45773019 -2 6 C-1.67 5.34 -1.34 4.68 -1 4 C-0.34 4 0.32 4 1 4 C0.67 2.68 0.34 1.36 0 0 Z " fill="#2ABAD7" transform="translate(86,26)"/>
<path d="M0 0 C0 0.99 0 1.98 0 3 C-2.31 3.33 -4.62 3.66 -7 4 C-3.17391304 0 -3.17391304 0 0 0 Z " fill="#2DC0DA" transform="translate(155,165)"/>
<path d="M0 0 C2.475 0.99 2.475 0.99 5 2 C4.360625 2.268125 3.72125 2.53625 3.0625 2.8125 C0.66868314 3.88667752 0.66868314 3.88667752 0 7 C0 4.69 0 2.38 0 0 Z " fill="#222D36" transform="translate(169,61)"/>
</svg>
