<?xml version="1.0" encoding="UTF-8"?>
<svg version="1.1" xmlns="http://www.w3.org/2000/svg" width="2400" height="2363">
<path d="M0 0 C1.25490234 -0.01052147 1.25490234 -0.01052147 2.53515625 -0.02125549 C5.23052388 -0.03870825 7.92567163 -0.04511096 10.62109375 -0.046875 C11.54276337 -0.04754974 12.46443298 -0.04822449 13.41403198 -0.04891968 C27.51544832 -0.03251216 41.17475488 0.5600708 55.05859375 3.203125 C55.98172363 3.36941406 56.90485352 3.53570312 57.85595703 3.70703125 C123.62454884 15.69118498 186.8428753 44.20546024 244.41015625 77.67382812 C247.07259574 79.21121022 249.74985528 80.71889906 252.43359375 82.21875 C268.29012294 91.10397411 284.23655623 100.31295296 298.05859375 112.203125 C299.10049211 113.07549874 300.1435444 113.94649542 301.1875 114.81640625 C306.26918877 119.0651164 311.28281889 123.37075358 316.18359375 127.828125 C333.9459768 143.90565178 350.36957471 157.61851491 374.83642578 158.83569336 C375.89921249 158.89114822 376.96199921 158.94660309 378.05699158 159.0037384 C380.35729285 159.12346378 382.6576667 159.24180117 384.95810318 159.35890007 C388.60855783 159.54511901 392.25875137 159.73584837 395.90890503 159.9278717 C406.28495892 160.47308632 416.66135188 161.01158997 427.03808594 161.54370117 C433.39420976 161.86995599 439.74997091 162.20264745 446.10555649 162.539217 C448.51734622 162.66564649 450.92926528 162.78963496 453.34131241 162.91105461 C469.70263664 163.73528591 485.04429741 165.30899472 501.00390625 169.14453125 C502.20069504 169.42806458 503.39748383 169.7115979 504.63053894 170.00372314 C507.8249186 170.76225412 511.01809357 171.52557754 514.21054459 172.29217911 C516.19926142 172.76938456 518.1883618 173.24495887 520.17758179 173.72006226 C585.92154306 189.42721305 649.72183921 206.79793314 707.95654297 242.31494141 C710.7850685 244.03663324 713.62317884 245.74026917 716.46875 247.43359375 C734.00251265 257.86825451 751.31784714 268.6598144 768.53710938 279.60449219 C771.11800313 281.24079082 773.70531239 282.8666085 776.29296875 284.4921875 C790.32513557 293.34916364 804.11348573 302.55212157 817.87109375 311.828125 C818.77158447 312.4346994 819.6720752 313.0412738 820.59985352 313.66622925 C838.89954213 326.00184509 856.97943964 338.62633644 874.83642578 351.59423828 C877.08131019 353.21957208 879.33257759 354.83565989 881.5859375 356.44921875 C891.23490534 363.36609364 900.73088275 370.45363665 910.12597656 377.71142578 C911.92080519 379.09677228 913.71919156 380.47729567 915.51953125 381.85546875 C928.25995026 391.61270951 940.82220756 401.57428135 953.25 411.7265625 C954.85094855 413.03360041 956.45457351 414.33735856 958.05859375 415.640625 C964.57159957 420.94190881 970.9894258 426.34919943 977.38818359 431.78710938 C979.06235216 433.20631103 980.7413085 434.61963271 982.421875 436.03125 C988.30480792 440.97742112 994.10623415 445.98793851 999.796875 451.15625 C1001.8653325 453.0282219 1003.95420289 454.8717589 1006.05859375 456.703125 C1009.913865 460.06293971 1013.71639226 463.47895517 1017.51171875 466.90625 C1019.12224015 468.35868341 1020.73637232 469.80713176 1022.35546875 471.25 C1033.37941975 481.09017103 1044.22423394 491.14982734 1054.54614258 501.72753906 C1057.22385774 504.45259554 1059.97174462 507.02570623 1062.8671875 509.51953125 C1067.49291069 513.5229204 1071.80789203 517.80547315 1076.12109375 522.140625 C1076.88486328 522.90052734 1077.64863281 523.66042969 1078.43554688 524.44335938 C1082.59608925 528.61101987 1086.56616558 532.87230963 1090.40795898 537.33422852 C1092.99188773 540.25982747 1095.76596148 542.97843998 1098.55859375 545.703125 C1102.65683366 549.70165104 1106.51575196 553.81761733 1110.25976562 558.15039062 C1113.26970035 561.58518041 1116.41823012 564.887937 1119.55859375 568.203125 C1126.49947703 575.53040797 1133.13095049 583.09143 1139.68359375 590.765625 C1143.4627465 595.18619082 1147.25985089 599.59007133 1151.0793457 603.97583008 C1156.01809978 609.64957377 1160.8904709 615.36053935 1165.625 621.20703125 C1167.51764059 623.53713612 1169.42148139 625.85587382 1171.3359375 628.16796875 C1178.20818156 636.46889878 1184.9909321 644.8243421 1191.60302734 653.33398438 C1193.18277465 655.36258977 1194.77073875 657.38459926 1196.359375 659.40625 C1204.19760849 669.40219945 1211.80465058 679.54812765 1219.29980469 689.80322266 C1221.06868108 692.21688937 1222.8470954 694.62321284 1224.62890625 697.02734375 C1231.13899672 705.81453823 1237.56872084 714.64879661 1243.83837891 723.609375 C1245.95101525 726.6263334 1248.07097547 729.63791486 1250.19726562 732.64526367 C1258.25319759 744.06276464 1266.06719967 755.62149506 1273.73583984 767.30224609 C1275.55477218 770.07230512 1277.37859785 772.83909241 1279.203125 775.60546875 C1290.18520208 792.28142455 1301.05693011 809.04116678 1311.37109375 826.140625 C1312.24096924 827.5781311 1312.24096924 827.5781311 1313.12841797 829.04467773 C1314.26550145 830.92467897 1315.40162932 832.80525866 1316.53662109 834.68652344 C1317.85494734 836.86639302 1319.18226532 839.04024805 1320.515625 841.2109375 C1345.39694347 881.87038505 1362.57899146 926.12201635 1380.08129883 970.2890625 C1388.95616788 992.6551697 1398.34557994 1014.77940113 1408.12109375 1036.765625 C1409.77580884 1040.49562007 1411.42899831 1044.22629044 1413.08203125 1047.95703125 C1413.49654037 1048.89205475 1413.9110495 1049.82707825 1414.33811951 1050.79043579 C1417.15011486 1057.13800012 1419.94292049 1063.49371638 1422.72265625 1069.85546875 C1431.3589019 1089.61630909 1440.14109002 1109.29750476 1449.16041565 1128.88650513 C1451.42672765 1133.8136986 1453.66883025 1138.7514116 1455.8984375 1143.6953125 C1463.51289843 1160.57005025 1471.36506941 1177.30240728 1479.47558594 1193.94433594 C1481.81926077 1198.76903855 1484.1267311 1203.61074496 1486.43359375 1208.453125 C1507.22342897 1252.07333779 1507.22342897 1252.07333779 1529.24609375 1295.078125 C1538.21213923 1311.9725746 1546.63965082 1329.08047716 1554.49609375 1346.515625 C1568.64774151 1377.9135539 1582.94051089 1408.77756182 1604.05859375 1436.203125 C1604.52394531 1436.87214844 1604.98929688 1437.54117187 1605.46875 1438.23046875 C1615.54036772 1451.81329264 1637.17524006 1456.38997103 1652.28125 1461.68359375 C1661.43592304 1464.96618419 1670.08800929 1469.00918162 1678.83081055 1473.26586914 C1687.10183529 1477.28698916 1695.42627561 1481.17120548 1703.80859375 1484.953125 C1704.44890533 1485.24213684 1705.08921692 1485.53114868 1705.74893188 1485.82891846 C1715.77834767 1490.34730817 1725.86459198 1494.72817734 1735.97033691 1499.07266235 C1774.34003361 1515.57183224 1811.79525838 1532.63698719 1847.05859375 1555.203125 C1848.28956787 1555.98574707 1848.28956787 1555.98574707 1849.54541016 1556.78417969 C1855.42457108 1560.52828344 1861.24714088 1564.35496426 1867.05859375 1568.203125 C1867.6912616 1568.62160706 1868.32392944 1569.04008911 1868.97576904 1569.47125244 C1892.94117999 1585.32503368 1916.74721888 1601.35375748 1939.9921875 1618.25390625 C1943.13613864 1620.53927426 1946.29629698 1622.80010415 1949.46704102 1625.0480957 C1957.02245141 1630.40705341 1964.43453003 1635.9450515 1971.828125 1641.52441406 C1974.22332106 1643.32710322 1976.62468949 1645.12132702 1979.02734375 1646.9140625 C1988.24798415 1653.79800127 1997.40301254 1660.74521713 2006.4140625 1667.90136719 C2008.09252495 1669.22998384 2009.77753944 1670.54982178 2011.46484375 1671.8671875 C2018.40474245 1677.28818716 2025.2694218 1682.79261045 2032.09057617 1688.36230469 C2036.43574352 1691.90401806 2040.8229934 1695.38442986 2045.24609375 1698.828125 C2050.94739786 1703.27348265 2056.47888855 1707.89233085 2061.9765625 1712.5859375 C2064.80542388 1714.99809024 2067.67434497 1717.35732498 2070.55859375 1719.703125 C2076.79710631 1724.78602308 2082.93327242 1729.98493625 2089.05859375 1735.203125 C2089.64608398 1735.70279785 2090.23357422 1736.2024707 2090.83886719 1736.71728516 C2105.99313072 1749.61357162 2120.67404478 1762.53246021 2133.05859375 1778.203125 C2133.95687825 1779.31237784 2134.85668979 1780.42039534 2135.7578125 1781.52734375 C2141.50519343 1788.61116621 2147.05131045 1795.82169364 2152.49609375 1803.140625 C2168.21014321 1825.11171488 2168.21014321 1825.11171488 2186.6940918 1844.62695312 C2188.4200208 1846.62061883 2188.4103017 1847.61073931 2188.3515625 1850.21484375 C2188.34189453 1850.97216797 2188.33222656 1851.72949219 2188.32226562 1852.50976562 C2188.29712891 1853.29544922 2188.27199219 1854.08113281 2188.24609375 1854.890625 C2188.23255859 1855.68791016 2188.21902344 1856.48519531 2188.20507812 1857.30664062 C2188.16976464 1859.27242467 2188.11595822 1861.23786082 2188.05859375 1863.203125 C2133.46149687 1880.06404615 2080.56746514 1892.90845398 2023.74584961 1899.43359375 C1989.48544431 1903.37205312 1956.79566818 1909.19396539 1923.57543945 1918.55224609 C1894.61425193 1926.70840408 1865.81855499 1933.6577933 1836.05859375 1938.203125 C1836.66445312 1939.07839844 1837.2703125 1939.95367188 1837.89453125 1940.85546875 C1839.79030291 1943.78809748 1841.24628002 1946.5955987 1842.68359375 1949.765625 C1866.37658142 1997.80479047 1927.22435562 2026.47899442 1971.37109375 2051.890625 C2001.11866775 2069.01706941 2029.80049862 2086.66470708 2056.5 2108.33203125 C2059.47507893 2110.74494201 2062.4912236 2113.09947546 2065.52099609 2115.44311523 C2071.39207309 2119.99195706 2076.95746166 2124.73633753 2082.40234375 2129.796875 C2085.10833811 2132.24818754 2087.89837579 2134.54369191 2090.74609375 2136.828125 C2094.72695932 2140.03995972 2098.39413586 2143.37641294 2101.9140625 2147.0859375 C2103.78549368 2148.93350708 2105.70055317 2150.63359027 2107.69433594 2152.34545898 C2111.97754306 2156.0824063 2116.01903736 2160.01882056 2120.03125 2164.04296875 C2120.75799423 2164.76875626 2121.48473846 2165.49454376 2122.23350525 2166.24232483 C2123.75821671 2167.76636056 2125.28168525 2169.29164069 2126.80395508 2170.81811523 C2129.11493266 2173.13444963 2131.43120146 2175.44539578 2133.74804688 2177.75585938 C2135.23860195 2179.24707534 2136.72884675 2180.73860153 2138.21875 2182.23046875 C2138.90123306 2182.91092758 2139.58371613 2183.59138641 2140.28688049 2184.29246521 C2144.19888917 2188.22331882 2147.93505116 2192.25678969 2151.55348206 2196.4598999 C2153.62689626 2198.86133475 2155.78086461 2201.18531383 2157.93359375 2203.515625 C2162.37543684 2208.3909813 2166.57414022 2213.41527989 2170.71289062 2218.54833984 C2172.26836452 2220.46107606 2173.84205927 2222.35797269 2175.41796875 2224.25390625 C2176.01834961 2224.97755371 2176.61873047 2225.70120117 2177.23730469 2226.44677734 C2178.40527908 2227.85366982 2179.57504301 2229.25907971 2180.74707031 2230.66259766 C2184.07339796 2234.67942238 2187.2104132 2238.77817896 2190.2734375 2243 C2194.77088257 2249.03423892 2199.76103695 2254.29931304 2205.12475586 2259.55053711 C2206.63086248 2261.02518972 2208.12576178 2262.51051582 2209.61914062 2263.99804688 C2214.3102499 2268.65124272 2219.07605612 2273.17033117 2224.08569336 2277.47924805 C2236.09720072 2287.9746389 2246.89302844 2298.29940144 2253.05859375 2313.203125 C2253.95665684 2315.32307531 2254.85513074 2317.44285162 2255.75390625 2319.5625 C2257.20110607 2322.98081102 2258.63718114 2326.40089862 2260.02929688 2329.84204102 C2262.53318328 2335.965898 2265.27656106 2341.56311508 2268.8984375 2347.10766602 C2270.43393837 2349.88106752 2270.54891989 2352.09772611 2270.05859375 2355.203125 C2256.38821734 2351.73600055 2246.39193332 2341.73719943 2236.8359375 2331.859375 C2227.24980534 2321.98526891 2217.64725056 2313.37237812 2206.23632812 2305.67529297 C2202.68485302 2303.27446395 2199.18590939 2300.79986572 2195.68359375 2298.328125 C2194.99305908 2297.8434375 2194.30252441 2297.35875 2193.59106445 2296.859375 C2187.15204379 2292.32028393 2180.86352281 2287.58931428 2174.57519531 2282.84472656 C2166.8834098 2277.04849081 2159.08933447 2271.4043026 2151.26318359 2265.79150391 C2149.05855909 2264.20310002 2146.86396598 2262.60174062 2144.671875 2260.99609375 C2128.65808715 2249.28819223 2112.28088244 2238.06823206 2095.05859375 2228.203125 C2094.41519043 2227.8333252 2093.77178711 2227.46352539 2093.10888672 2227.08251953 C2064.93069299 2210.97000663 2035.66278532 2196.8417674 2006.04296875 2183.59765625 C1961.85957871 2163.83407914 1919.78067621 2141.92946041 1880.05859375 2114.203125 C1878.93227539 2113.41832764 1878.93227539 2113.41832764 1877.78320312 2112.61767578 C1873.84017955 2109.860156 1869.93720553 2107.05056178 1866.05859375 2104.203125 C1865.36604492 2103.69539551 1864.67349609 2103.18766602 1863.95996094 2102.66455078 C1859.96375425 2099.73189204 1855.9736761 2096.79108297 1851.98828125 2093.84375 C1848.75001339 2091.44930125 1845.50535464 2089.06401801 1842.25390625 2086.6875 C1832.78082168 2079.75564338 1823.43665096 2072.68556281 1814.203125 2065.4375 C1811.68030925 2063.45895679 1809.14385075 2061.50581956 1806.5703125 2059.59375 C1792.41286953 2049.01456185 1779.56459709 2036.60500389 1768.05859375 2023.203125 C1767.16336263 2022.18306492 1766.26747941 2021.16357692 1765.37109375 2020.14453125 C1757.80124382 2011.49112178 1750.81678034 2002.50087175 1744.05859375 1993.203125 C1743.56891113 1992.53442383 1743.07922852 1991.86572266 1742.57470703 1991.17675781 C1729.90182942 1973.81997127 1718.74658231 1956.33136381 1711.05859375 1936.203125 C1709.90784878 1933.19662816 1708.74455002 1930.19591856 1707.55859375 1927.203125 C1707.28233154 1926.49961914 1707.00606934 1925.79611328 1706.72143555 1925.07128906 C1704.86241897 1920.55645792 1702.59206362 1917.02662124 1699.49609375 1913.203125 C1696.10433297 1908.88812432 1696.10433297 1908.88812432 1695.89453125 1905.74609375 C1696.37344987 1903.37897959 1697.06007476 1901.39814519 1698.05859375 1899.203125 C1698.49171875 1898.15125 1698.92484375 1897.099375 1699.37109375 1896.015625 C1708.12123114 1881.43206268 1725.06230785 1876.77934411 1740.69418335 1872.72338867 C1753.19623481 1869.45389576 1765.22938698 1865.44620075 1777.24609375 1860.703125 C1838.32600016 1836.66790241 1903.59106571 1826.42623393 1968.80859375 1822.078125 C1970.50773926 1821.96464722 1970.50773926 1821.96464722 1972.24121094 1821.84887695 C1994.72853611 1820.45639985 2017.2133552 1820.03552687 2039.73730469 1820.07275391 C2043.29300358 1820.07857389 2046.84862898 1820.07507242 2050.40432549 1820.06918144 C2053.18558309 1820.06557237 2055.96682308 1820.06671392 2058.74808121 1820.06930923 C2060.69182637 1820.07028908 2062.63557225 1820.06728257 2064.57931519 1820.06417847 C2065.75309723 1820.06733063 2066.92687927 1820.07048279 2068.13623047 1820.07373047 C2069.67620193 1820.07492386 2069.67620193 1820.07492386 2071.24728394 1820.07614136 C2073.95388359 1820.19839536 2076.42273859 1820.59434522 2079.05859375 1821.203125 C2070.1312525 1787.16763647 2023.19912468 1765.13844417 1995.8515625 1747.92578125 C1983.39459844 1740.08341187 1971.16284256 1732.05979639 1959.25366211 1723.40258789 C1953.56540947 1719.27238846 1947.82677307 1715.22079846 1942.05859375 1711.203125 C1935.65782433 1706.74422437 1929.30409204 1702.2297717 1922.99609375 1697.640625 C1914.56829521 1691.51872847 1905.99360113 1685.62887238 1897.375 1679.77978516 C1895.21199456 1678.30753715 1893.0556931 1676.8261675 1890.90234375 1675.33984375 C1879.98461366 1667.81185707 1868.96495108 1660.43806695 1857.93359375 1653.078125 C1857.17708527 1652.57292328 1856.42057678 1652.06772156 1855.6411438 1651.54721069 C1814.61218569 1624.15769457 1775.33987754 1603.52536239 1728.80737305 1586.97045898 C1717.43797696 1582.91700192 1706.15716447 1578.73817866 1694.98260498 1574.17559814 C1676.18776142 1566.50753092 1656.86066187 1560.72814003 1637.42749023 1554.9140625 C1540.12343398 1525.71181456 1540.12343398 1525.71181456 1511.05859375 1483.203125 C1510.55779297 1482.47383789 1510.05699219 1481.74455078 1509.54101562 1480.99316406 C1479.21816784 1436.69492294 1455.47395678 1388.04178079 1433.85145569 1339.03289795 C1430.39836213 1331.20655077 1426.89427247 1323.40740006 1423.30859375 1315.640625 C1419.53547245 1307.4603858 1415.83470998 1299.25106523 1412.18359375 1291.015625 C1411.68553223 1289.8925293 1411.1874707 1288.76943359 1410.67431641 1287.61230469 C1409.65390731 1285.31090079 1408.63356298 1283.00946818 1407.61328125 1280.70800781 C1398.63017471 1260.45651951 1389.46115568 1240.30529204 1380.02661133 1220.26025391 C1379.02029952 1218.12174614 1378.01496379 1215.98278143 1377.00976562 1213.84375 C1369.68465291 1198.26019147 1362.32225355 1182.69675148 1354.80859375 1167.203125 C1349.7995674 1156.87209666 1344.90548583 1146.49391887 1340.09277344 1136.07006836 C1337.13632616 1129.66933327 1334.15931255 1123.27968282 1331.14453125 1116.90625 C1322.87679677 1099.42700076 1314.73307644 1081.90752977 1306.9420166 1064.20892334 C1306.00299246 1062.07688312 1305.06154867 1059.94591963 1304.12011719 1057.81494141 C1295.42512058 1038.10818966 1287.23650454 1018.32656491 1279.76763916 998.11779785 C1265.45920823 959.47998444 1248.36055542 922.87491889 1227.76416016 887.17285156 C1225.91293705 883.94950803 1224.08404755 880.71412521 1222.2578125 877.4765625 C1213.22487564 861.48600742 1203.81789547 845.76423611 1194.05859375 830.203125 C1193.47400391 829.26839355 1192.88941406 828.33366211 1192.28710938 827.37060547 C1175.65915077 800.83128385 1158.14384062 774.83787099 1139.72900391 749.50732422 C1138.04404688 747.18305874 1136.36831894 744.85241069 1134.6953125 742.51953125 C1128.30617621 733.61660578 1121.79085318 724.8494582 1115.05859375 716.203125 C1113.82592443 714.60065489 1112.5963189 712.99586701 1111.36694336 711.39086914 C1098.93810272 695.17711407 1086.13676908 679.29532454 1072.89282227 663.73852539 C1070.04550441 660.38932889 1067.258604 656.99745587 1064.49609375 653.578125 C1060.62046442 648.81505282 1056.54625086 644.26948251 1052.390625 639.75 C1050.43454123 637.61370751 1048.51671678 635.45531843 1046.62109375 633.265625 C1043.23048303 629.3644282 1039.73761776 625.55970436 1036.23754883 621.75708008 C1033.40371483 618.67670012 1030.59531418 615.57635506 1027.80859375 612.453125 C1014.48016072 597.65657915 1000.52384607 583.50849318 986.43139648 569.44555664 C983.6524115 566.67232483 980.87802066 563.89454665 978.10488224 561.11546993 C975.93524127 558.94219654 973.76320131 556.77133328 971.59045219 554.60116768 C970.56641055 553.57778495 969.54308836 552.55368169 968.5205555 551.52879143 C963.38611556 546.38508822 958.22243849 541.34697258 952.70414734 536.61509705 C950.76185162 534.94850455 948.8979393 533.2125169 947.05078125 531.44140625 C946.046521 530.48451904 946.046521 530.48451904 945.02197266 529.50830078 C944.33280762 528.85071777 943.64364258 528.19313477 942.93359375 527.515625 C937.07564372 521.96104917 931.12099923 516.57490564 924.95336914 511.3671875 C921.35224868 508.32501428 917.83992696 505.20969915 914.37109375 502.015625 C910.03848605 498.04301532 905.57004003 494.29971802 900.99609375 490.609375 C897.69505318 487.90533113 894.4711073 485.12182975 891.24609375 482.328125 C885.49604321 477.36381518 879.60049039 472.62748304 873.6015625 467.96875 C870.62453123 465.65537767 867.68667401 463.29728012 864.75585938 460.92578125 C855.83123173 453.7133812 846.66270671 446.84322424 837.45849609 439.99316406 C835.25358408 438.34856438 833.05480513 436.69628869 830.859375 435.0390625 C814.40895747 422.62166364 797.65121454 410.81572825 780.45263672 399.45410156 C776.82209266 397.05072572 773.20758902 394.62370574 769.59375 392.1953125 C755.2572948 382.56862224 740.86748507 373.09477611 726.05859375 364.203125 C725.18364258 363.67702637 724.30869141 363.15092773 723.40722656 362.60888672 C709.43085172 354.22859004 695.30799703 346.10979175 681.05859375 338.203125 C680.10162598 337.67170898 679.1446582 337.14029297 678.15869141 336.59277344 C602.97660377 295.04114377 522.96226866 257.2870926 424.62109375 252.203125 C376.36000675 249.82026872 376.36000675 249.82026872 357.41162109 246.12207031 C352.53503341 245.20944552 347.8957087 244.95215888 342.9453125 245 C341.26757036 244.98945122 339.58983546 244.97769475 337.91210938 244.96484375 C335.33207627 244.95457739 332.75308079 244.95307064 330.1730957 244.97314453 C300.28696213 245.15000244 279.41522458 225.51197365 258.51757812 206.00195312 C212.99711128 163.52837161 149.95136241 137.94831143 93.05859375 114.203125 C92.27367554 113.87489746 91.48875732 113.54666992 90.68005371 113.20849609 C37.8048709 88.67419747 37.8048709 88.67419747 -18.25390625 88.953125 C-19.83130171 89.6712683 -21.39553765 90.4194181 -22.94140625 91.203125 C-24.50343266 91.85010293 -26.06592366 92.49596046 -27.62890625 93.140625 C-40.87434659 99.21738616 -45.44315793 107.20299512 -50.69140625 120.515625 C-58.12128335 142.43376245 -47.13879422 166.33351594 -37.66064453 185.8605957 C-24.97297427 211.49695961 -8.18149648 234.27044972 9.90234375 256.33203125 C13.31864503 260.50577889 16.6515513 264.7415581 19.96948242 268.99365234 C22.27300413 271.94206022 24.59323648 274.87377473 26.953125 277.77734375 C34.11014106 286.5921464 40.82882499 295.65875096 47.41748047 304.90478516 C50.11499795 308.68259378 52.83803498 312.4418952 55.55859375 316.203125 C56.64330641 317.70567341 57.72794182 319.20827758 58.8125 320.7109375 C60.96216852 323.68779899 63.11611552 326.66149338 65.2734375 329.6328125 C101.75740335 379.91942643 101.75740335 379.91942643 116.05859375 405.203125 C116.49800293 405.96737793 116.93741211 406.73163086 117.39013672 407.51904297 C151.28449566 466.68822276 170.06551547 534.8961119 190.26412964 599.5887146 C196.2897038 618.87640852 202.50202539 638.08923575 209.05859375 657.203125 C209.4777002 658.42854004 209.89680664 659.65395508 210.32861328 660.91650391 C230.26573028 718.88167944 256.84328921 789.93523653 301.51416016 833.68505859 C303.36900951 835.50824122 305.18740723 837.36509104 307.0078125 839.22265625 C312.93145301 845.23356955 318.87969459 851.09530483 325.26635742 856.61547852 C340.69918809 870.28659932 353.81168332 891.68650513 355.21484375 912.5234375 C356.63545883 954.07642865 337.25102528 997.58936977 322.60852814 1035.66040802 C314.80373821 1055.95696378 307.22755461 1076.0460961 302.05859375 1097.203125 C301.75501953 1098.41081543 301.45144531 1099.61850586 301.13867188 1100.86279297 C293.02489315 1133.45707353 288.28896579 1166.68928286 285.25 1200.11138916 C285.07184373 1202.05832586 284.88584562 1204.00454059 284.69921875 1205.95068359 C280.62518642 1249.97084539 281.83571155 1295.25030818 286.05859375 1339.203125 C286.13120422 1339.96765991 286.2038147 1340.73219482 286.27862549 1341.51989746 C294.08672514 1422.91567386 314.46449297 1521.9587434 379.63671875 1599.4453125 C388.17521998 1606.01535686 402.9363634 1616.03729228 414.05859375 1615.203125 C415.72757863 1614.88159997 417.394647 1614.54978057 419.05859375 1614.203125 C419.20773727 1612.84084778 419.20773727 1612.84084778 419.3598938 1611.4510498 C435.89165601 1460.55512692 435.89165601 1460.55512692 448.05859375 1415.203125 C448.3313916 1414.16494629 448.60418945 1413.12676758 448.88525391 1412.05712891 C453.07190934 1396.26781405 458.61346303 1381.2060297 465.05859375 1366.203125 C465.41066895 1365.38166992 465.76274414 1364.56021484 466.12548828 1363.71386719 C475.57554159 1341.96997314 489.55164566 1323.17325141 504.57910156 1304.99414062 C506.56224012 1302.59343032 508.52865638 1300.17920988 510.49609375 1297.765625 C513.05459602 1294.63286036 515.63109163 1291.51681296 518.23046875 1288.41796875 C526.94689226 1277.98774527 535.10970821 1267.22823289 543.05859375 1256.203125 C551.68348101 1260.35539533 555.38927383 1267.95296591 558.578125 1276.66015625 C559.64937969 1279.79508039 560.52754064 1282.93621945 561.3203125 1286.15234375 C566.48032156 1306.90881287 575.14148687 1326.08922343 583.64892578 1345.65039062 C585.8599093 1350.73614711 588.04192842 1355.83372267 590.2109375 1360.9375 C597.65332031 1378.43673976 605.22712378 1395.87385794 613.05859375 1413.203125 C613.52265625 1414.23034668 613.98671875 1415.25756836 614.46484375 1416.31591797 C625.84166613 1441.41208207 637.60095126 1466.45962346 650.7109375 1490.70361328 C652.29638015 1493.64414986 653.86510365 1496.59335531 655.43359375 1499.54296875 C664.4753563 1516.52246722 673.71686901 1533.38707734 683.05859375 1550.203125 C683.6712207 1551.30849609 684.28384766 1552.41386719 684.91503906 1553.55273438 C692.48335596 1567.20105517 700.21150731 1580.73740193 708.22167969 1594.13134766 C709.52893543 1596.31740451 710.83441544 1598.50444761 712.13769531 1600.69287109 C722.24290419 1617.6586122 732.50478732 1634.51137885 743.05859375 1651.203125 C743.65655762 1652.15155273 744.25452148 1653.09998047 744.87060547 1654.07714844 C752.22532428 1665.73750425 759.71318509 1677.29340667 767.40576172 1688.73339844 C769.25027916 1691.48954887 771.07902743 1694.25579236 772.90625 1697.0234375 C780.54146949 1708.57182183 788.35857263 1719.93001664 796.53369141 1731.1015625 C799.06195015 1734.58591268 801.52593676 1738.11497793 803.99609375 1741.640625 C810.53118357 1750.94089365 817.27630972 1760.08218949 824.05859375 1769.203125 C824.5901709 1769.91919922 825.12174805 1770.63527344 825.66943359 1771.37304688 C835.87847854 1785.11316004 846.33450205 1798.53980095 857.56005859 1811.46630859 C859.02683974 1813.16632181 860.47691791 1814.87907435 861.921875 1816.59765625 C869.31451956 1825.36871838 877.09764285 1833.72277224 885.00195312 1842.03320312 C889.00108308 1846.25260804 892.96124132 1850.50879288 896.9230957 1854.76318359 C898.62617157 1856.58501176 900.33989059 1858.39604133 902.05859375 1860.203125 C902.60797607 1860.78892334 903.1573584 1861.37472168 903.72338867 1861.97827148 C908.16901057 1866.59554397 913.03435529 1870.30337665 918.24609375 1874.015625 C938.76594158 1888.9166125 938.76594158 1888.9166125 943.05859375 1895.265625 C944.7041449 1898.3292747 944.7041449 1898.3292747 947.18359375 1898.88671875 C947.80234375 1898.99113281 948.42109375 1899.09554688 949.05859375 1899.203125 C949.05859375 1901.183125 949.05859375 1903.163125 949.05859375 1905.203125 C942.96645334 1903.34540809 937.35743344 1901.08799876 931.74609375 1898.078125 C931.01116699 1897.68560547 930.27624023 1897.29308594 929.51904297 1896.88867188 C922.85464241 1893.24164665 916.96063385 1888.99695842 911.05859375 1884.203125 C910.18332031 1883.51863281 909.30804687 1882.83414062 908.40625 1882.12890625 C896.37749546 1872.57302342 885.4805507 1861.71440422 874.6796875 1850.81640625 C873.77129623 1849.90021011 872.86290497 1848.98401398 871.92698669 1848.04005432 C868.16703223 1844.24351574 864.40919296 1840.44498395 860.66235352 1836.63549805 C850.27907244 1826.08462466 840.01105176 1815.95960639 828.05859375 1807.203125 C826.66634404 1806.10758672 825.27969658 1805.00483439 823.90234375 1803.890625 C823.34281006 1803.44138672 822.78327637 1802.99214844 822.20678711 1802.52929688 C821.6628833 1802.09166016 821.11897949 1801.65402344 820.55859375 1801.203125 C816.30893971 1797.78960527 812.04131112 1794.40314737 807.73754883 1791.05810547 C801.71908642 1786.3752979 795.8677944 1781.5403125 790.10400391 1776.54736328 C786.57586899 1773.49242989 783.0038656 1770.50911138 779.37109375 1767.578125 C774.62450679 1763.72501323 770.10091736 1759.66887957 765.6015625 1755.53125 C763.48792321 1753.59618238 761.35199527 1751.70104203 759.18359375 1749.828125 C754.62242696 1745.85907722 750.19009819 1741.75179563 745.76025391 1737.63769531 C743.39801886 1735.44440533 741.03188987 1733.25546572 738.66235352 1731.07006836 C729.94573956 1723.00810606 721.44894596 1714.75051008 713.06689453 1706.34179688 C711.03533175 1704.30480079 708.99837539 1702.27330549 706.9609375 1700.2421875 C705.63900168 1698.91959183 704.31737558 1697.59668651 702.99609375 1696.2734375 C702.40119141 1695.68055939 701.80628906 1695.08768127 701.19335938 1694.47683716 C697.53426212 1690.79756485 694.06544599 1686.99698922 690.68087769 1683.06352234 C687.94004317 1679.92039731 685.05180295 1676.91701638 682.18359375 1673.890625 C677.35005908 1668.75077542 672.73296429 1663.52017066 668.328125 1658.00390625 C666.1589125 1655.32692627 663.93010094 1652.71790268 661.67236328 1650.1159668 C655.98004473 1643.55555623 650.56104316 1636.85204145 645.34472656 1629.90576172 C644.02008774 1628.15214913 642.67756193 1626.41340279 641.33203125 1624.67578125 C626.87318232 1605.89039034 614.71042946 1586.65132034 604.84277344 1565.07617188 C594.86228279 1543.34585101 584.04209401 1522.0142221 573.33935547 1500.63427734 C570.88982911 1495.74100913 568.44399502 1490.84590554 565.99915123 1485.9502964 C564.10648699 1482.16137053 562.21193482 1478.37339123 560.31679153 1474.5857048 C559.41270848 1472.77820576 558.50921956 1470.97040941 557.60633469 1469.16231155 C556.35715865 1466.6614372 555.10545046 1464.16184711 553.85302734 1461.66259766 C553.4811731 1460.91686493 553.10931885 1460.1711322 552.72619629 1459.40280151 C551.21527063 1456.08491097 551.21527063 1456.08491097 549.05859375 1453.203125 C545.63283449 1460.61388786 544.16764622 1467.57151291 543.18359375 1475.640625 C541.94617494 1484.85970923 540.34245948 1493.84457602 538.18359375 1502.890625 C532.65850209 1526.54241502 529.87557637 1550.77629929 526.7578125 1574.83862305 C522.17131805 1610.19566504 522.17131805 1610.19566504 518.05859375 1626.203125 C517.8373584 1627.0703418 517.61612305 1627.93755859 517.38818359 1628.83105469 C513.05948014 1645.35883149 507.04854158 1660.91489911 496.05859375 1674.203125 C495.35992188 1675.06421875 494.66125 1675.9253125 493.94140625 1676.8125 C478.98725165 1694.37431857 454.9131861 1705.14084411 432.05859375 1707.203125 C400.14728443 1709.32619061 371.9849143 1696.23718987 348.17578125 1675.71875 C345.08349063 1672.93156539 342.05879735 1670.08855213 339.05859375 1667.203125 C338.16237305 1666.34775146 338.16237305 1666.34775146 337.24804688 1665.47509766 C328.86543231 1657.43635196 321.25867177 1649.16362151 314.30859375 1639.85888672 C313.11533286 1638.27828216 311.88463571 1636.72614857 310.65234375 1635.17578125 C297.78168877 1618.94120508 287.02924296 1601.32891608 277.05859375 1583.203125 C276.65833984 1582.48769531 276.25808594 1581.77226563 275.84570312 1581.03515625 C233.54901996 1505.37669404 216.18862733 1414.86981405 210.05859375 1329.203125 C209.96288086 1327.95120361 209.86716797 1326.69928223 209.76855469 1325.40942383 C208.64660459 1309.39483985 208.81272089 1293.31133445 208.80859375 1277.265625 C208.80793097 1276.08481857 208.80793097 1276.08481857 208.80725479 1274.88015747 C208.79961707 1248.88813632 209.29664089 1223.07227747 212.05859375 1197.203125 C212.14580688 1196.38334167 212.23302002 1195.56355835 212.32287598 1194.71893311 C217.44362515 1147.24680604 226.83253191 1100.5140924 240.6875 1054.80810547 C245.22777153 1039.74352814 248.79241589 1024.58957733 252.05859375 1009.203125 C254.92112723 995.71817811 257.86011604 982.31339398 261.7109375 969.0703125 C261.99167114 968.10416016 262.27240479 967.13800781 262.56164551 966.14257812 C265.66094509 955.77597113 269.4203713 945.83653223 275.68359375 936.953125 C278.13723219 933.03648824 278.29083096 930.77813829 277.30859375 926.265625 C272.50724846 911.80618899 263.50831652 901.73766568 252.12109375 891.98046875 C187.01183274 835.87305633 151.43924837 724.44873553 115.09301758 620.75061035 C112.02335902 611.92369394 108.89607004 603.11856067 105.74033165 594.3220787 C104.96081035 592.1480829 104.1827493 589.97357036 103.40522766 587.79885864 C103.14926284 587.08296759 102.89329802 586.36707653 102.62957668 585.62949181 C102.11467391 584.18927418 101.59981998 582.74903909 101.0850153 581.30878639 C99.84461557 577.84069947 98.60058618 574.37400984 97.3475647 570.91046143 C91.06960133 553.54894107 85.5651448 536.14786044 80.87036133 518.28662109 C79.78121571 514.14950556 78.65491239 510.0230624 77.51953125 505.8984375 C77.33966675 505.24496338 77.15980225 504.59148926 76.9744873 503.91821289 C76.46108478 502.05478724 75.94734327 500.19145501 75.43359375 498.328125 C74.91925781 496.42353516 74.91925781 496.42353516 74.39453125 494.48046875 C70.78075681 481.44696609 65.92341425 469.17972226 59.62109375 457.203125 C59.11449219 456.23745605 58.60789063 455.27178711 58.0859375 454.27685547 C52.11446406 443.12902325 45.18919463 432.63547429 38.05859375 422.203125 C37.53797363 421.43806641 37.01735352 420.67300781 36.48095703 419.88476562 C28.65663547 408.44108265 20.23313313 397.45803541 11.79150391 386.46630859 C9.69364667 383.7265035 7.62207735 380.96890322 5.55859375 378.203125 C2.16826064 373.66319618 -1.26398961 369.15667982 -4.7043457 364.65454102 C-10.11803443 357.56999934 -15.513494 350.47959918 -20.75390625 343.265625 C-25.53710522 336.68806085 -30.52161785 330.28720323 -35.57958984 323.91943359 C-43.87565479 313.46383363 -52.09575025 302.94558913 -60.25537109 292.38330078 C-61.31553619 291.01242411 -62.3780255 289.64333855 -63.44384766 288.27685547 C-101.87819733 238.92530458 -134.9726783 180.60959545 -128.515625 116.0390625 C-126.20545411 98.44399948 -119.43470677 81.65772038 -110.94140625 66.203125 C-110.38839844 65.16027344 -109.83539063 64.11742187 -109.265625 63.04296875 C-92.88062545 33.36226552 -66.47011333 14.4022296 -34.43603516 4.89892578 C-23.16476519 1.75514819 -11.69499835 0.06569632 0 0 Z " fill="#00536A" transform="translate(128.94140625,-0.203125)"/>
<path d="M0 0 C15.32398925 -1.10109459 15.32398925 -1.10109459 20.68359375 1.65527344 C22.76171875 3.56152344 22.76171875 3.56152344 24.6640625 5.77246094 C27.67973284 9.04072589 31.12575518 11.25123005 34.82421875 13.68652344 C49.56277666 23.63646045 60.08164525 33.5599431 68.01171875 49.68652344 C71.073306 55.83248409 73.98305221 61.56251826 78.26171875 66.93652344 C84.6761219 76.63635259 80.23227921 92.02185512 78.19921875 102.68652344 C74.66482885 119.60657921 68.07888716 133.84416185 55.94921875 146.24902344 C55.30339844 146.92191406 54.65757812 147.59480469 53.9921875 148.28808594 C47.65120046 154.78103563 47.65120046 154.78103563 43.94921875 157.24902344 C40.94921875 156.24902344 40.94921875 156.24902344 39.07080078 152.99975586 C38.3556228 151.53980729 37.65188057 150.07422475 36.95703125 148.60449219 C36.57455231 147.81564133 36.19207336 147.02679047 35.79800415 146.21403503 C34.54672634 143.62622602 33.31037071 141.03158734 32.07421875 138.43652344 C31.21588004 136.65379172 30.35682663 134.87140395 29.49707031 133.08935547 C23.95414922 121.57231009 18.50441382 110.01043168 13.22314453 98.37084961 C6.19937571 82.79699857 6.19937571 82.79699857 -3.86328125 69.12402344 C-4.37608643 68.54547607 -4.8888916 67.96692871 -5.41723633 67.37084961 C-6.94810166 65.65060864 -8.49574072 63.94741135 -10.05078125 62.24902344 C-10.93507813 61.27835937 -11.819375 60.30769531 -12.73046875 59.30761719 C-14.37990328 57.50146069 -16.03090197 55.69673118 -17.68359375 53.89355469 C-20.85281611 50.3530208 -23.85382692 46.69299308 -26.83203125 42.99121094 C-28.3093683 41.16534719 -29.80954991 39.35773012 -31.33203125 37.56933594 C-45.57807521 20.73753742 -45.57807521 20.73753742 -47.05078125 12.24902344 C-48.37078125 12.24902344 -49.69078125 12.24902344 -51.05078125 12.24902344 C-51.05078125 10.92902344 -51.05078125 9.60902344 -51.05078125 8.24902344 C-34.14036504 3.91993633 -17.38582757 1.41913765 0 0 Z " fill="#00536A" transform="translate(529.05078125,402.7509765625)"/>
</svg>
